<?xml version="1.0" encoding="UTF-8"?>
<svg version="1.1" viewBox="0 0 2048 1707" width="547" height="456" xmlns="http://www.w3.org/2000/svg">
<path transform="translate(1543,305)" d="m0 0 6 2 19 12 13 10 12 14 9 14 5 13 2 8v15l-3 7 1 7 10 19 9 25 2 1 6-26 5-9 9-10 7-7 8-7 6-6h2v-2l5-5 7-9 4-2 3 7 3 19v10l-3 12-8 14-10 12-14 10-16 8-11 4v13l3 25v17l-2 21 4-2 13-15 12-9 14-7 44-15 15-6h3l-1 5-7 16-9 16-8 10-8 8-10 6-11 4-19 3h-29l-5-1-4 17-8 23-8 18 8-5 6-5 16-8 5-1h19l13 4 21 6 9 2-5 5-18 12-13 8-8 4-8 2h-23l-16-4-15-6-2 4-7 11-11 16-11 15-8 12 14-8 16-8 6-1h14l9 2 21 10 6 3h2l9-11 11-12 10-9 12-6 10-3 11-1 12 3 8 5 6 9 4 16v19l-4 17-9 25-4 11-1 13 3 9 6 5 10 2 12 2 11 6 4 7 2 5 1 6v8l-3 9-4 7-6 7-13 10-21 13-11 7-5 4-4 8v9l4 11 13 18 6 7 5 12 3 11 5 1 16-2 13-5 19-9 12-3h21l13 4 9 8 4 9v15l-4 9-6 9-9 9-14 10-8 10-2 5 1 8 6 10 10 13 3 7-1 9-5 10-9 9-12 6-16 4-23 3-31 3-12 3-8 5v6l4 5 16 9 7 6 3 6-1 9-6 12-9 10-8 6-14 6-10 3-15 1-1 5-7 11-9 10-8 8 2 5 6 12 1 3v14l-5 12-7 8-10 5h-5l4 6 38 38 7 8 51 51 7 8 5 4 7 8 10 10 6 8 3 8v34l-1 20-3 10-5 6-11 4-21 1-231 1h-406l-374-2-132-1-98-1-56-1-30-1-14-2-8-5-6-7-3-11-1-29 1-25 4-8 22-22 8-7 33-33 8-7 13-12 13-14 7-5 1-4-14-8-10-9-12-12-8-13-8-16-7-12-5-6-9-5-15-4-27-4-20-5-10-6-5-5-4-8-6-22-3-6-5-5-8-4-44-15-16-7-11-8-7-9-4-8-1-13 4-15v-7l-2-4-16-10-9-7-6-5-7-8-11-12-11-15-6-13-2-7-1-10 3-10 4-6 7-6 7-3 6-1h8l15 3 12 5 18 11 8 5 9 4 10 1 8-3 4-6 4-12 4-6 8-5 6-2h9l10 4 5 5 6 7 9 19 9 25 4 6 7 3h12l16-8 13-6 5-1h14l11 4 9 6 7 7 8 16 8 20 5 7v2h3l1-14 2-7 6-8 17-17 4-8-1-7-6-9-11-10-14-11-8-7-11-9-10-10-8-14-5-16v-14l4-13 9-10 11-7 13-8 3-3 2-8v-14l-4-9-9-13-9-11-12-13-7-8-9-12-4-9-1-4v-17l4-17 6-12 6-5 13-5 14-4 8-4 5-5 4-6 3-11 3-23 3-24 4-12 6-10 7-7 10-7 10-4h17l9 4 8 6 7 7 1 2 2-35 4-12 4-5 10-5 5-1h15v-40l1-42 5-5 15-2 18-1 40-1 5-12 4-1h16l1-17 4-1h32l16 1 2 3 1 11 1 2 19 2 2 2 2 8 4 1 44 1 18 1 6 3 6 7 1 3 1 17v47h86l52 1h46l25-1 14-2 2-5 4-13 1-8-18-4-16-8-11-11-7-12-2-6-12-6-1-2v-16l2-5 5-5v-5l-10-10-6-9-2-5v-12l7-14 4-3-1 5-5 8-2 7v7l3 8 1-16 5-14 3-4 3-9v-7l7-14 6-4 12-3 10 1 9 4 5 2 10-7 9-3 5-1h11l8 4 7 6 4 7 16 1 11 4 5 5 4 5 3 10v13l-4 10-2 3 1 6 4 12 1 5v18l-4 13-7 10-13 11-8 10-13 12-1 7 4 16 5 8 5 4h7l4-1 8 2h305l14 2 12 4 10 6 8 8 10 18 9 10 9 11 15 15 8 13 5 16 3 26h2l14-20 12-19 6-10 11-23 3-10-13-1-21-5-16-7-13-9-7-7-5-8-5-14-1-28 11 7 15 8 16 8 14 10 9 8 9 13 8 16v2l2-1 6-21 2-13 1-12v-27l-20-1-20-5-11-6-10-9-8-9-14-19-6-10 12 2 21 2 17 2 12 5 8 6 9 9 6 9 2 1-3-19-10-28-8-16-5-8-16-5-10-7-8-7-7-10-7-16-6-25-3-24zm-978 335 1 17 3 10 4 6 7 4 15 2 2-1 1-4v-22l-23-4-9-8zm956 0v52l3 35 2 2 6-9 9-15 9-13 10-12 7-10-1-3-19-10-12-8-12-9zm47 26m-15 28-7 9-10 15-10 18-3 10 5 5 7-1 13-5 14-4 44-2 12-1 4-5 8-15 5-12 1-4-6 1-17 6h-22l-18-6-16-8zm-30 82-1 5-1 44 6-1 16-9 2-4 3-27-9-4zm0 84-1 3 1 3 3 1 6-3-1-3-2-1zm-1322 135 4 6 7 7 14 11 16 12 18 12 16 8 14 6 21 7 9 1v2l-5 2v2l5 1h15l16 7 17 10 11 9 7 4-4 3-3 1v2l14 1 6 3 13 10 11 10 8 7 7 7 7 5 1 2-9 1-16 6-17 8v2l7-1 20-6 19-3 9 1 15 10 24 14 23 12 4 3-13 7-12 9-5 6 6-2 24-13 7-3h6l27 10 7 2h7l5-4-1-5-6-4-6-16h-4v8l2 8-17-7-20-7-21-10-6-4-4-7h-2l-2 4-26-16-17-12-10-9-6-5-8-20-7-22-6-24-3-10-2-1v11l3 16 4 21 6 18 1 2-8-7-10-8-14-10-17-12-14-9-17-9-13-5-25-8-2-5-3-13-4-40h-2l-1 6-1 27 2 22-10-4-20-9-16-9-15-10-17-12-12-9zm167 113v1h7v-1z" fill="#7A8BC3"/>
<path transform="translate(0)" d="m0 0h1172l-2 10-10 25-13 23-13 19-10 13-12 14-7 8-9 10-20 18-11 9-18 13-17 11-19 11-32 15-29 11-34 10-34 7-32 4-38 3-25 1h-23l-29-1-60-5-25-3-43-8-26-6-30-7-47-11-34-7-40-4-17-1h-25l-23 2-22 4-27 9-20 9-18 11-18 14-11 9-13 13-13 17-10 14-15 25-9 19-13 36-7 24-11 48-16 79-7 29-10 33-8 23-13 31-12 25-14 26-12 17-8 11-13 16-8 10-30 30-5 3h-2v-24l24-24 9-11 12-16 15-24 15-27 13-29 10-28 11-33 10-37 16-75 9-43 10-36 9-26 10-23 12-23 9-14 10-14 13-16 25-25 14-11 14-10 16-9 21-10 25-9 23-5 25-3h49l29 3 23 4 24 5 65 13 8 2-2-4-11-5-33-11-48-12-26-5-44-5-26-2h-41l-31 3-28 5-30 8-21 8-19 9-18 10-14 10-10 9-8 7-20 20-10 13-16 24-11 19-15 31-17 49-14 46-10 35-14 47-9 24-11 24-9 17-10 16h-2z" fill="#CBE3F1"/>
<path transform="translate(1167,539)" d="m0 0h24l24 3 12 3 14 5 12 5 6 3v2l5 1 2 1v2l4 2 13 8 6 4 4 4 3 1 7 7 19 1h118l12 2 16 6 8 7 6 8 5 14 1 9 1 99v26l2 23 1 6v15l-2 13-1 41-2 170-2 53-2 36-2 11-3 6-7 6-8 3-6 1h-138l-2-1-223-1v-294l11-16 13-20 12-19 8-11 28-42 21-28 11-14 9-11 7-10 1-2v-8l-4-8-4-4-7-2h-10l-6 1v2l-5 4-3 5v12l5 7 6 4 14 1-1 4-9 11-10 13-12 16-11 16-16 24-7 10-14 21-4 7-9 14-9 13-5 7-2-3-8-14-9-15-17-28-16-26-10-15-8-11-8-13-8-10-7-9-1-2 1-14 2-8 6-10 5-8 1-4 5-5 7-5h9l1 3 6 2 10 9 4 7 2 10 2 3 3 1 3 17v18l-3 16-3 5h-3v3l7-3 4-13 1-18-2-26h4l3 13 5 32 9 53 7 35h2l2-6 5-13 8-21 2-9 3-7 4-16 3-11 3-8 8-33 1-1 5-25 9-49 8-41 6-26z" fill="#FDFDFD"/>
<path transform="translate(1040,538)" d="m0 0h28l-2 28v32l2 36 4 44h-2l-8-20v-2h-2l-3-5-4-5-8-4-9-3-1-1-1-8-1-29-6-1-3 1v39l-11 6-9 11-6 14v3l3 1v4h-2l-2 13-2 4h-2l2 4 1 35 1 2 12 3 5 2v2l5-2h3v-3l4 2 10 16 19 29 12 19 17 29 7 14 1 40v256h-184l-149-2-62-1-15-2-12-6-6-7-3-11-1-9-2-51v-240l1-12 3-1 35-1 99-2 32-1 14-2 4-3 7-3 5-7 3-11v-182h24l61 1 2-6 15-15 8-7 10-8 19-9 14-4 13-3z" fill="#FDFDFD"/>
<path transform="translate(707,426)" d="m0 0h32l16 1 2 3 1 11 1 2 19 2 2 2 2 8 4 2h-2v11h14l28 1 6 1 4 5 4 12v264l-1 4-3 3-3 5-7 2-11 2-50 2h-115l-24-1-5-6-1-4v-110l-11 3-6 1h-9l-19-3-9-8 1 16 3 10 4 6 6 3 13 2 3 2 1 68v26l2 18 4 6v2l21 2 1 1v12l-1 14v55l-1 116v37l1 35v25l2 14v30l3 12 3 6 8 7 7 4-3 3-15 5-15 8-12 10-4 1-8-4-13-8-6-3-1 4-2 1v8l2 8-2 1-11-5-25-9-21-10-7-5-3-6-3-1-3-22-1-1-2-20v-7l-4-8-10-12-4-7-8-24 1-4 1-14 2-7 6-8 17-17 4-8-1-7-6-9-11-10-14-11-8-7-11-9-10-10-8-14-5-16v-14l4-13 9-10 11-7 13-8 3-3 2-8v-14l-4-9-9-13-9-11-12-13-7-8-9-12-4-9-1-4v-17l4-17 6-12 6-5 13-5 14-4 8-4 5-5 4-6 3-11 3-23 3-24 4-12 6-10 7-7 10-7 10-4h17l9 4 8 6 7 7 1 2 2-35 4-12 4-5 10-5 5-1h15v-40l1-42 5-5 15-2 18-1 40-1 5-12 4-1h16l1-17z" fill="#95CDF2"/>
<path transform="translate(1081,1513)" d="m0 0h7l7 4 4 1h17l11-1h14l24 2 19 3 84 7 9 2 8 9 5 9 6 3 38 7 41 4 84 7 25 3 20 4 27 9 23 10 6 4 4 8-1 8-4 8-9 8-19 10-25 9-26 7-19 5-23 11-6 4-1 1 1 8 4 8 7 3 19 1 6 3 4 3v2h-969l2-6 13-16 7-8 10-8 26-16 22-10 28-11 20-6 32-8 49-9 71-11 62-9 70-12 26-7h3v-2l-5 1-80 4-75 6-50 5-48 7-73 13-30 7-28 8-26 8-22 9-26 12-21 11-18 11-12 11-8 8-7 11-4 7h-22l2-6 7-12 8-10 9-10 11-10 13-9 14-9 24-13 21-9 39-14 29-9 47-12 61-11 87-11 57-5 91-5 40-3 28-4 39-8 30-8 15-6z" fill="#CCE4F2"/>
<path transform="translate(373,1422)" d="m0 0 6 2v2l26 1 13 1h85l47-1 44 1h637l183 1h101l171 1 51-1h18l16-1v48l-3 10-5 6-11 4-21 1-231 1h-406l-374-2-132-1-98-1-56-1-30-1-14-2-8-5-6-7-3-11-1-29z" fill="#697CBA"/>
<path transform="translate(1543,305)" d="m0 0 6 2 19 12 13 10 12 14 9 14 5 13 2 8v15l-3 7 1 7 10 19 9 25 2 1 6-26 5-9 9-10 7-7 8-7 6-6h2v-2l5-5 7-9 4-2 3 7 3 19v10l-3 12-8 14-10 12-14 10-16 8-11 4v13l3 25v17l-2 21 4-2 13-15 12-9 14-7 44-15 15-6h3l-1 5-7 16-9 16-8 10-8 8-10 6-11 4-19 3h-29l-5-1-4 17-8 23-8 18 8-5 6-5 16-8 5-1h19l13 4 21 6 9 2-5 5-18 12-13 8-8 4-8 2h-23l-16-4-15-6-2 4-7 11-11 16-11 15-8 12 14-8 16-8 6-1h14l9 2 21 10 6 3h2l9-11 11-12 10-9 12-6 10-3 11-1 12 3 8 5 6 9 4 16v19l-4 17-9 25-4 11-1 13 3 9 6 5 10 2 12 2 11 6 4 7 2 5 1 6v8l-3 9-4 7-6 7-13 10-21 13-11 7-5 4-4 8v9l4 11 13 18 6 7 5 12 1 9-4-1-12-11-5-4-3-1h-10l-13 2-8 4-8 6-5 6-7 14-7 2-8 4-25 11-17 8-3 2h-3l2-6 6-11 8-14 13-27 13-36 5-20 4-29 2-10 5-4 26-10 11-3h3v-2l-14 3-19 5-6 2h-5l1-11 4-21 9-27 7-16 4-11 5-11h-2l-2 6-11 23-5 10-9 26-5 21-4 30-3 9-4-2-4-8-8-15-4-7-1-3h-2l9 19 3 6 5 13 4 9v8l-6 20-7 23-8 16-3 5-4-2-11-23-8-12-8-11-2-4h-3l7 10 8 14 9 17 5 15 1 9-11 20-6 10-7 12-4 9-5 8-1 3-7 5-3-3-8-18-9-15-11-15-7-9 7 12 10 16 8 14 6 14 1 10-9 14-5 14-4 32-7 26-3 4-7-1-8-8-2-8 2-43 1-65 2-74v-37l5-3 3-4h2l-3-3-7-1-1-5v-29l22-12 2-10 2-20-21-7-2-8v-7l4-5 10-6 13-7 9-3 2-1 44-2 12-1 6-9 12-26-23 8h-22l-18-6-16-8-4-1-11 15-14 23h-2l1-6 11-19 8-12 9-11 11-15v-2l-19-10-12-8-11-9-1-4-1-56 1-2 4 2 13 15 13 13 8 13 5 16 3 26h2l14-20 12-19 6-10 11-23 3-10-13-1-21-5-16-7-13-9-7-7-5-8-5-14-1-28 11 7 15 8 16 8 14 10 9 8 9 13 8 16v2l2-1 6-21 2-13 1-12v-27l-20-1-20-5-11-6-10-9-8-9-14-19-6-10 12 2 21 2 17 2 12 5 8 6 9 9 6 9 2 1-3-19-10-28-8-16-5-8-16-5-10-7-8-7-7-10-7-16-6-25-3-24z" fill="#8973B0"/>
<path transform="translate(707,426)" d="m0 0h32l16 1 2 3 1 11 1 2 19 2 2 2 2 8 4 2h-2v11h14l28 1 6 1 4 5 4 12v264l-1 4-3 3-3 5-7 2-11 2-50 2h-115l-24-1-5-6-1-4v-110l-11 3-6 1h-9l-19-3-10-9-3-12-3-18v-25l1-14 4-12 4-5 10-5 5-1h15v-40l1-42 5-5 15-2 18-1 40-1 5-12 4-1h16l1-17z" fill="#FDFDFD"/>
<path transform="translate(1680,722)" d="m0 0h2l-3 9-4 9-5 13-8 21-5 18-5 27 22-6 15-4h7v2l-9 3-13 4-20 8-2 2-4 23-3 21-6 21-12 32-16 33-8 13-5 10 23-11 27-12 8-4h5l3-9 6-9 8-7 7-4 9-3 8-1h10l7 4 9 9 5 4 4 1 1 2 5 1 16-2 13-5 19-9 12-3h21l13 4 9 8 4 9v15l-4 9-6 9-9 9-14 10-8 10-2 5 1 8 6 10 10 13 3 7-1 9-5 10-9 9-12 6-16 4-23 3-31 3-12 3-8 5v6l4 5 16 9 7 6 3 6-1 9-6 12-9 10-8 6-14 6-10 3-15 1-1 5-7 11-9 10-8 8 2 5 6 12 1 3v14l-5 12-7 8-10 5h-5l-9-9-8-7-11-11-7-5-7-8-7-6v-2h-2l-15-15-8-7-18-15v-2h-2l-5-5-17-8-9-3 2-5 3-7 2-7 1-54 4 2 8 7h5l3-7 6-22 3-28 5-16 7-12 3-4-1-10-7-16-9-16-13-20-2-5 5 5 4 5 13 18 9 16 7 16 5-3 3-1 1-5 6-9 4-10 10-17 6-10 6-11-1-9-6-17-9-17-11-18-3-4 1-2 5 5 7 9 10 15 11 23 3 1 8-16 4-10 5-17 6-20v-8l-5-12-4-10-9-19-2-3v-3h2l5 7 8 17 4 7 2 3h2l3-14 4-29 6-22 7-20 7-15z" fill="#95CDF2"/>
<path transform="translate(297,947)" d="m0 0h9l10 4 5 5 6 7 9 19 9 25 4 6 7 3h12l16-8 13-6 5-1h14l11 4 9 6 7 7 8 16 8 20 5 7v2h2l9 28 6 9 8 10 4 8 1 20 1 7 1 1 3 22-1 5-14-8-19-12-12-9-14-12-3-5-6-14-7-21-7-28-3-10v10l3 16 4 21 6 18v2l-4-2-11-10-34-24-14-9-17-9-13-5-25-8-2-2-4-17-3-33v-7h-2l-1 33 2 22-2 1-27-12-18-10-15-10-17-12-12-9-4-1 7 8 13 11 19 14 18 12 16 8 14 6 21 7 9 2v2l-4 2-1 2h20l16 7 17 10 11 9 8 5-3 3-5 1v2h14l6 3 13 10 11 10 8 7 7 7 8 6v2l-15 4-12 5-13 6h-2v2l27-8 19-3 9 1 15 10 24 14 23 12 5 4-14 8-12 9-3 4 17-9 18-9h6l27 10 9 3 1 4-8 7-8 6-13 13h-2v2l-6 4-10 9h-2l-2 4-6 5-17 17-14 10-4 3-6-2-12-7-19-19-8-13-8-16-7-12-5-6-9-5-15-4-27-4-20-5-10-6-5-5-4-8-6-22-3-6-5-5-8-4-44-15-16-7-11-8-7-9-4-8-1-13 4-15v-7l-2-4-16-10-9-7-6-5-7-8-11-12-11-15-6-13-2-7-1-10 3-10 4-6 7-6 7-3 6-1h8l15 3 12 5 18 11 8 5 9 4 10 1 8-3 4-6 4-12 4-6 8-5zm71 161v1h7v-1z" fill="#8973B0"/>
<path transform="translate(1105,334)" d="m0 0h11l8 4 7 6 4 7 16 1 11 4 5 5 4 5 3 10v13l-4 10-2 3 1 6 4 12 1 5v18l-4 13-7 10-13 11-8 10-13 12-1 7 4 16 5 8 5 4h7l4-1 8 2 32 1v1l-11 1v1h-15l-2 14-7 30-9 49-8 42-3 15-3 9-6 25-5 15-3 13-2 7-3 7-3 12-7 18-5 13-3 6h-2l-2-5-7-35-11-65-4-28h-4l2 13 1 18-2 18-4 9-3 2h-4v-3l3-1 3-8 2-12v-18l-2-12v-5l-4-1-3-5-1-8-6-9-7-6-6-3-1-2h-9l-7 5-3 4h-2l-1 6-6 9-5 9-2 14v6l4 6 10 12 10 16 13 18 11 18 13 21 21 35 10 17 1 2 10-15 7-10 7-11 10-16 10-15 13-19 8-12 12-17 10-13 12-16 7-8 1-3h-14l-8-6-4-6v-12l6-8 3-1v-2l6-2h10l8 3 6 7 2 5v8l-6 9-7 9-13 16-12 16-13 18-24 36-7 10-10 15-12 19-11 16-6 9-1 294h223v1h-224l-1-1-1-34v-222l-1-40-8-16-16-27-12-19-17-26-8-12-4-7-3-2v3l-4 2h-4v-2l-5-1-12-3-2-3-1-35-1-4h2l2-9 1-6 1-2h2v-4l-4-1 1-6 7-14 9-10 8-4h2l-1-10v-29l4-2 6 1 1 1 1 29 1 8 9 3 9 5 6 7v3h2l8 20v2h2l-2-13-3-31-2-36v-32l2-24 1-4-15 1h-13l-13 1-24 6-12 5-13 7-8 7h-2l-2 4-10 9-8 8-2 5h-61l-23-1-1-4 1-51h86l52 1h46l25-1 14-2 2-5 4-13 1-8-18-4-16-8-11-11-7-12-2-6-12-6-1-2v-16l2-5 5-5v-5l-10-10-6-9-2-5v-12l7-14 4-3-1 5-5 8-2 7v7l3 8 1-16 5-14 3-4 3-9v-7l7-14 6-4 12-3 10 1 9 4 5 2 10-7 9-3z" fill="#7A8CC4"/>
<path transform="translate(901,784)" d="m0 0h1l-1 12-6 48-7 58-5 48-4 38-4 49-4 61-1 7h-71l-64-2-14-3-8-6-4-4-2-8-2-38-1-31v-157l1-43 1-10-40 1-4-2 35-1 59-1h19v1l-7 1-56 2 19 12 17 10 21 10 15 5 4 1h23l16-4 10-4 16-9 13-9 14-12 9-9 8-7z" fill="#CBE3F1"/>
<path transform="translate(909,1339)" d="m0 0h205l93 1h31l14 2 7 3 7 14 3 10 8 30 2 10-2 2-62 1h-57l-83 1h-17l-40-1-31-1h-106l-11-2-1-7 5-21 9-27 6-9 8-4z" fill="#8B9DD0"/>
<path transform="translate(514,668)" d="m0 0h2l1 9 1 41 4 54 4 31 7-3 17-14 10-9 19-19 8-10 6-7 4 1v32l2 18 4 6v2l21 2 1 1v12l-1 14v55l-1 116v37l1 35v25l1 5v21l-4-2-12-19-18-36-3-4h-8l-7 1h-20l-20-3-19-5-14-5-2-3 5-1 21 6 18 3h34l7-1-1-6-17-40-15-43-12-42v-2l-11-1-25-7-32-13-5-3-1-3 5-1 35 13 23 6 8 1-5-21-8-39v-3l-9-2-12-5-16-7-5-4 1-2 10 2 29 10-4-29-4-34-14-9-19-14-5-4v-2l-4-2-14-13-1-3 4-1 8 7 10 8 12 9 16 10 4 2h3v-82l1-15z" fill="#95CDF3"/>
<path transform="translate(1543,305)" d="m0 0 6 2 19 12 13 10 12 14 9 14 5 13 2 8v15l-3 7 1 7 10 19 9 25 2 1 6-26 5-9 9-10 7-7 8-7 6-6h2v-2l5-5 7-9 4-2 3 7 3 19v10l-3 12-8 14-10 12-14 10-16 8-11 4v13l3 25v17l-2 21 4-2 13-15 12-9 14-7 44-15 15-6h3l-1 5-7 16-9 16-8 10-8 8-10 6-11 4-19 3h-29l-5-1-4 17-8 23-8 18 8-5 6-5 16-8 5-1h19l13 4 21 6 9 2-5 5-18 12-13 8-8 4-8 2h-23l-16-4-15-6-2 4-7 11-11 16-11 15-8 12 14-8 16-8 6-1h14l9 2 21 10 5 2 1 4-13 16-10 5-12 4h-22l-18-6-16-8-4-1-11 15-14 23h-2l1-6 11-19 8-12 9-11 11-15v-2l-19-10-12-8-11-9-1-4-1-56 1-2 4 2 13 15 13 13 8 13 5 16 3 26h2l14-20 12-19 6-10 11-23 3-10-13-1-21-5-16-7-13-9-7-7-5-8-5-14-1-28 11 7 15 8 16 8 14 10 9 8 9 13 8 16v2l2-1 6-21 2-13 1-12v-27l-20-1-20-5-11-6-10-9-8-9-14-19-6-10 12 2 21 2 17 2 12 5 8 6 9 9 6 9 2 1-3-19-10-28-8-16-5-8-16-5-10-7-8-7-7-10-7-16-6-25-3-24z" fill="#A45598"/>
<path transform="translate(1105,334)" d="m0 0h11l8 4 7 6 4 7 16 1 11 4 5 5 4 5 3 10v13l-4 10-2 3 1 6 4 12 1 5v18l-4 13-7 10-13 11-8 10-13 12-1 7 4 16 5 8 5 4 5 2 10 5-1 5-11 9-10 5-15 4h-17l-16-4-14-7-3-3v-11l6-2-5-1v-1l14-2 2-5 4-13 1-8-18-4-16-8-11-11-7-12-2-6-12-6-1-2v-16l2-5 5-5v-5l-10-10-6-9-2-5v-12l7-14 4-3-1 5-5 8-2 7v7l3 8 1-16 5-14 3-4 3-9v-7l7-14 6-4 12-3 10 1 9 4 5 2 10-7 9-3z" fill="#F5D2C4"/>
<path transform="translate(1440,875)" d="m0 0 3 1v36l-1 99-1 38-2 34-2 12-8 10-7 3h-94l-3-12-6-40-2-20-1-20v-43l1-26 32-16 21-11 25-15 22-14 10-7z" fill="#CCE4F2"/>
<path transform="translate(1167,539)" d="m0 0h24v1h-17l9 13 5 11 4 14 5 28 7 25 3 8-1 4-7 3-1 7 2 1-16 2v2l-5 4-3 5v12l5 7 6 4 14 1-1 4-9 11-10 13-12 16-11 16-16 24-7 10-14 21-4 7-9 14-9 13-5 7-2-3-8-14-9-15-17-28-16-26-10-15-8-11-8-13-8-10-7-9-1-2 1-14 2-8 6-10 5-8 1-4 5-5 7-5h9l1 3 6 2 10 9 4 7 2 10 2 3 3 1 3 17v18l-3 16-3 5h-3v3l7-3 4-13 1-18-2-26h4l3 13 5 32 9 53 7 35h2l2-6 5-13 8-21 2-9 3-7 4-16 3-11 3-8 8-33 1-1 5-25 9-49 8-41 6-26z" fill="#FCFCFD"/>
<path transform="translate(741,1295)" d="m0 0h472l13 1 2 1 5 15 3 13v6l-3 1h-492l-24-1-3-1 2-6 10-17 6-8h2l1-3z" fill="#524871"/>
<path transform="translate(784,457)" d="m0 0h46l18 1 6 3 6 7 1 3 1 17v284l-4 13-5 6-10 5-6 2-9 1-72 2-59 1h-72l-2-1-13-1-6-4-3-4-1-18-1-92v-29l17-1 1 16 1 71 1 18 3 9 3 3 4 1 66 1 62-1 50-2 17-2 9-4 4-7h2v-268l-4-12-3-3v-2l-34-1-14-1z" fill="#544A74"/>
<path transform="translate(1225,866)" d="m0 0 5 1 3 3 5 11 12 31 11 28 11 20 4 1 20-7 11-4h2v2l-14 6-19 7h-3v-2l-10 3-19 10-23 11-25 9-8 2h-13l-7-3-3-5-1-4v-7l1-5-7-1-4-6-1-9 5-9-8-1-6-3-2-5v-6l4-5 24-16 12-7 1-2-6 1h-20l-7-2-5-4-1-8 4-9 5-3 4-2 51-9 4-1z" fill="#F6D2C4"/>
<path transform="translate(2044,733)" d="m0 0h4v32l-22 12-14 6-31 12-18 5-28 5-16 2-14 1h-27l-27-2-63-12-10-3-8-7-1-6 4-8 9-7 9-3 48 4 21 1h71l34-3 25-4 14-5 8-6 14-4 6-3zm2 6 1 2z" fill="#FEFEFE"/>
<path transform="translate(1105,334)" d="m0 0h11l8 4 7 6 4 7 16 1 11 4 5 5 4 5 3 10v13l-4 10-2 3 1 6 4 12 1 5v18l-4 13-7 10-5 4h-3l2-5 9-10 2-5v-12l-2-4-3-2h-9l-3 1-5-4-6-9-25-10-16-8-15-5-5-1h-13l-15 4-12 6-8 12-1 4-4-1-5-6-5-7-2-5v-12l7-14 4-3-1 5-5 8-2 7v7l3 8 1-16 5-14 3-4 3-9v-7l7-14 6-4 12-3 10 1 9 4 5 2 10-7 9-3z" fill="#524872"/>
<path transform="translate(1305,591)" d="m0 0h135l12 2 16 6 8 7 6 8 5 14 1 9 1 99v26l2 23 1 6v15l-2 13-1 41-2 170-2 53-2 36-2 11-3 6-7 6-8 3-6 1h-138l3-2h11l-1-4v-9l39-1 73-1 10-2 7-5 4-8 2-9 3-75 2-109 2-72 1-7 2-3h2v-2h2l2-5 6-28v-13l-5-25-9-17-1-16-1-57-2-65-3-7-8-5-13-4-8-1h-120l-14-2z" fill="#CBE3F1"/>
<path transform="translate(514,668)" d="m0 0h2l1 9 1 41 4 54 4 31 7-3 17-14 10-9 19-19 8-10 6-7h3l-1 6-10 13-11 12-7 8-10 10-11 9-7 7-9 7-1 1v8l6 34 11 47 5 19 5 18v2l12-7 13-11 8-7 9-9 8-11 7-10 7-8h2l-1 7-7 10-12 17-9 9-6 7-11 9-12 10-3 2 1 9 9 27 3 6v2l8-4 11-8 11-10 8-7 7-6 1 3-9 11-16 16-16 12-1 2 5 13 12 27 17 36 1 2 5-2 5 1v6l-5 2 5 10v4h2v21l-4-2-12-19-18-36-3-4h-8l-7 1h-20l-20-3-19-5-14-5-2-3 5-1 21 6 18 3h34l7-1-1-6-17-40-15-43-12-42v-2l-11-1-25-7-32-13-5-3-1-3 5-1 35 13 23 6 8 1-5-21-8-39v-3l-9-2-12-5-16-7-5-4 1-2 10 2 29 10-4-29-4-34-14-9-19-14-5-4v-2l-4-2-14-13-1-3 4-1 8 7 10 8 12 9 16 10 4 2h3v-82l1-15z" fill="#CBE3F2"/>
<path transform="translate(707,426)" d="m0 0h32l16 1 2 3 1 11 1 2 19 2 2 2 2 8 4 2h-2v11h14l28 1v1h-42l-1 11-4 2h-94l-7-2-1-9h-46l-7 1-5 4-1 75-3 1-16-5-1-1v-39l1-42 5-5 15-2 18-1 40-1 5-12 4-1h16l1-17z" fill="#C0C6D4"/>
<path transform="translate(719,499)" d="m0 0h12l12 2 16 7 11 10 6 12 2 7v17l-5 12-6 9-7 7-10 6-10 4-14 1-15-3-9-4-9-7-5-5-6-8-4-10-1-5v-13l2-10 3-7h2l1-5 7-8 14-7z" fill="#A45497"/>
<path transform="translate(622,884)" d="m0 0h1v153l1 35v30l-2-4-4-7v-3l4-2v-6l-6 1h-4l-14-29-14-31-6-14-1-5 7-6 13-10 16-16 6-8-1-1-8 7h-2l-2 4-8 7-13 10-8 5h-3l-5-11-9-27v-6l16-13 14-12 9-10 8-10 12-18z" fill="#95CDF3"/>
<path transform="translate(862,535)" d="m0 0h86l52 1h76l2 2-8 1v9l-2 4-1 13h-1v-15l2-12-15 1h-13l-13 1-24 6-12 5-13 7-8 7h-2l-2 4-10 9-8 8-2 5h-61l-23-1-1-4z" fill="#7A8CC4"/>
<path transform="translate(619,476)" d="m0 0 1 2v78l2 2 1 13 3 10v7l-3 7 1 6 3 4 1 4-3 10-2 3v6l4 6v7l-5 5-4 3-15 3h-9l-19-3-10-9-3-12-3-18v-25l1-14 4-12 4-5 10-5 5-1 16-1 16 5h2l1-75z" fill="#F6D2C4"/>
<path transform="translate(2046,707)" d="m0 0h2v21l-4 5-11 5-24 7-47 10-23 4-32 2h-59l-28-2-28-4-53-9-5-2-1-5 3-6 5-5 12 1 48 8 36 4 17 1h59l33-3 26-5 27-8 29-11 16-7z" fill="#CCE4F2"/>
<path transform="translate(1040,538)" d="m0 0h28l-2 28v32l2 36 4 44h-2l-8-20v-2h-2l-3-5-4-5-8-4-9-3-1-1-1-8-1-29-6-1-3 1v39l-11 6-7 8-22-8-6-3-1-3 6-12 13-18 12-15 9-11 8-9 8-11 9-15 4-5 5-5-24 3-12 2h-5l4-2 13-3z" fill="#FCFDFD"/>
<path transform="translate(1713,952)" d="m0 0h1l-1 17-3 28v11l7-3 13-9 15-10 22-13 15-8 6-1-2 4-14 9-25 17-12 9-14 10-28 22-1 2 10 3 26 8 30 7 1 2h-12l-14-2-27-7-15-5h-8l-11 11h-2v2l-11 9-9 9-8 7-12 13-14 14-7 8-1 3 12 5 17 5 21 4 20 2 4 2-1 2h-13l-28-3-23-6-13-5-4 1-9 11-10 14 1 5 21 8 11 4 1 2-4 1-16-4-18-6-5 1-10 14-11 16h-5l-3-3v-5l8-12 10-14 13-16 10-14 9-10 7-8 10-10 2-3-1-8-6-21-4-16-1-7v-10l2 1 5 18 4 15 6 19 4-1 5-4 7-8 11-11 11-9 1-5-4-23v-11h2l3 10 4 18 1 2 4-1 10-9 16-13 10-7 1-1 3-31 3-23z" fill="#CCE4F2"/>
<path transform="translate(1291,1295)" d="m0 0h102l8 2 14 25 4 7-1 3h-109l-8-1-3-3-7-20-2-7v-5z" fill="#524871"/>
<path transform="translate(1521,942)" d="m0 0 4 1 5 5 1 5 11 18 10 16 7 15 3 9v6l-9 14-5 14-4 32-7 26-3 4-7-1-8-8-2-8 2-43 1-65 1-37z" fill="#8974B1"/>
<path transform="translate(1518,1295)" d="m0 0h49l27 1 7 4 9 9v2l3 1 9 11 4 5v3l-2 1h-93l-17-1-7-3-13-18-5-9 1-4 1-1z" fill="#524871"/>
<path transform="translate(612,1295)" d="m0 0 42 1 4 1-1 6-5 6-7 10-6 8-3 3-6 2h-58l-40-1-10-1 1-5 11-13 6-7 11-8 7-1z" fill="#524871"/>
<path transform="translate(1190,654)" d="m0 0h10l8 3 6 7 2 5v8l-6 9-7 9-13 16-12 16-13 18-24 36-7 10-10 15-12 19-11 16-6 9-1 294h223v1h-224l-1-1-1-34v-222l-1-40-8-16-16-27-12-19-17-26-8-12-4-7-3-2v3l-4 2h-4v-2l-5-1-12-3-2-3-1-35-1-4h2l2-9 1-6 1-2h2l1-3 3 2-2 3-2 14v6l4 6 10 12 10 16 13 18 11 18 13 21 21 35 10 17 1 2 10-15 7-10 7-11 10-16 10-15 13-19 8-12 12-17 10-13 12-16 7-8 1-3h-14l-8-6-4-6v-12l6-8 3-1v-2z" fill="#C4CFDD"/>
<path transform="translate(1276,1254)" d="m0 0h95l6 2 6 10 8 15v4h-102l-8-1-5-12-3-11v-6z" fill="#524872"/>
<path transform="translate(761,1254)" d="m0 0h97l5 1-3 11-7 15-2 3-3 1h-93l-12-1 1-5 6-12 9-12z" fill="#524872"/>
<path transform="translate(1103,1254)" d="m0 0h102l4 13 2 11v6l-2 1h-91l-14-1-2-1-1-5v-19z" fill="#524972"/>
<path transform="translate(934,1254)" d="m0 0h96l4 1v8l-3 19-3 3h-95l-11-2-1-3 7-20 3-5z" fill="#524872"/>
<path transform="translate(658,815)" d="m0 0h1l1 219 2 56 1 21 2 11 3 2 85 2 110 2 3 1v13h32v1h-71l-130-2-15-2-12-6-6-7-3-11-1-9-2-51z" fill="#CAE1EF"/>
<path transform="translate(1064,397)" d="m0 0h18l12 4 27 13 18 7 4 5 3 7-5 3-5 1h-13l-14-5h-7l-7 3-8 3-4 5-2 5-4-1-5-3-4-6-13-6h-7l-10 3h-8l2-3v-5l-1-2 5-13 8-7 16-7z" fill="#F5D2C4"/>
<path transform="translate(1484,1254)" d="m0 0h53l20 1 6 4v2l4 2 7 8 9 10 1 3-2 1h-91l-13-1-5-3-10-13-6-11v-2z" fill="#524871"/>
<path transform="translate(1316,735)" d="m0 0 4 2 9 6v2l4 2 10 9 6 5v2h2l7 8 2 4h2v2h2v2h2l5 5v2l4 2 1 4-5 5-11 7-14 10-21 12-16 8-24 10-27 10-24 10-2 1-2 3-5-1h-8l3-2 12-3 12-6 46-18 21-9 9-3-1-27-2-22-2-41z" fill="#CCE4F2"/>
<path transform="translate(658,1254)" d="m0 0 33 1-2 5-12 17h-2l-2 5-3 2-5 1h-67l-30-1-4-1 2-5 10-10 4-5 10-7 2-1z" fill="#524871"/>
<path transform="translate(1358,628)" d="m0 0h32l16 2 10 3 8 4 10 9 6 10 2 11 1 20v17l-5 1-16-16-8-7-7-6v-2l-4-2-14-13-11-9-13-11-8-7z" fill="#CCE4F2"/>
<path transform="translate(516,747)" d="m0 0 2 2 1 5 3 34 3 19 2 6 1 14 6 32 8 35 11 42 3 8 3 1-1 6 5 17 8 23 3 5 3 2-1 6 6 15 20 44 6 13 4 7 3 3 4 10 4 8v12l-4-2-7-11-11-23-11-20-4-4-1-6-11-26-8-19-10-28-8-25-9-32-4-4h2l-12-58-2-9-1-7-4-31-3-32-2-7 1-2 1-22z" fill="#FEFEFE"/>
<path transform="translate(1680,722)" d="m0 0h2l-3 9-4 9-5 13-8 21-5 18-5 27 22-6 15-4h7v2l-9 3-13 4-20 8-2 2-4 23-3 21-6 21-12 32-16 33-8 13-5 10 23-11 27-12 8-4h3l-1 4-12 5-14 6-10 6-23 13-8 6h-2l-3 9-6 3h-5l1-5 6-9 4-10 10-17 6-10 6-11-1-9-6-17-9-17-11-18-3-4 1-2 5 5 7 9 10 15 11 23 3 1 8-16 4-10 5-17 6-20v-8l-5-12-4-10-9-19-2-3v-3h2l5 7 8 17 4 7 2 3h2l3-14 4-29 6-22 7-20 7-15z" fill="#C7D8E6"/>
<path transform="translate(1305,591)" d="m0 0h135l12 2 16 6 8 7 6 8 5 14 1 9 1 99v26l2 23 1 6v15l-2 13-1 41-2 170h-1v-88l1-113 2-20v-18l-5-25-9-17-1-16-1-57-2-65-3-7-8-5-13-4-8-1h-120l-14-2z" fill="#CAE0EE"/>
<path transform="translate(646,612)" d="m0 0h145l19 1 1 2v11l-1 2-8 1h-126l-30-1-2-1-1-3v-10z" fill="#C1C7D5"/>
<path transform="translate(645,645)" d="m0 0h57l86 1 23 1 1 1v13l-1 1-34 1-107-1-24-1-2-1v-14z" fill="#C1C9D7"/>
<path transform="translate(946,1218)" d="m0 0h54l36 1v14l-1 9-1 2-6 1h-22l-72-1-1-1 1-9 5-14z" fill="#524871"/>
<path transform="translate(1258,1219)" d="m0 0h96l7 10 6 12v3l-3 1h-40l-58-1-3-3-6-21z" fill="#524871"/>
<path transform="translate(1108,1218)" d="m0 0h46l42 1 5 18 1 6-1 1h-100l-2-1-1-10v-13z" fill="#524872"/>
<path transform="translate(783,1219)" d="m0 0h95l-3 10-6 14-1 1-15 1h-21l-64-1-1-2 7-13 6-9z" fill="#524871"/>
<path transform="translate(1431,1219)" d="m0 0h87l9 2 10 11 7 9-1 3-4 1h-19l-68-1-8-1-8-11-6-10z" fill="#524871"/>
<path transform="translate(627,1219)" d="m0 0h88l2 3-10 13-7 8-3 1h-80l-13-1-1-3 7-8 6-7 7-5z" fill="#524871"/>
<path transform="translate(684,681)" d="m0 0h109l17 1 1 3v8l-1 2-26 1h-138l-2-1v-13z" fill="#C2CAD8"/>
<path transform="translate(497,1124)" d="m0 0 5 2 9 9v2h2l4 5 14 11 12 9 9 7 9 6 5 7 3 17 1 4-2 1-11-5-25-9-21-10-7-5-2-4-4-20-1-14z" fill="#8974B0"/>
<path transform="translate(1066,395)" d="m0 0h13l18 5 16 8 14 6 13 5 6 8 5 5 3-1h9l5 4 1 3v12l-3 6-5 6h-2l-2 5-2 3 2 1-4 2v-6l6-11h2l4-10v-8l-3-3-6 6h-5l-2-3-7 1-14 3-2 1-2-3-8-2h-23l-7 4-1 12-1-2-6-1-7 2-4 6-5 5-6 2h-18l-12-6-1-2v-16l2-5 2-2 12-2 7-2h7l8 4 5 2 4 5 2 3 4 2h3l3-7 4-4 11-3 3-2h7l14 5h13l9-3-5-10-11-5-16-7-21-10-10-3h-18l-16 6-8 5-4 5-4 11-4-2 2-1 1-6 8-11 12-6z" fill="#EDCFC6"/>
<path transform="translate(637,458)" d="m0 0h40v10l-3 1-40 1-9 1-5 3h-2l-1 7-1 69-6-1-10-3-1-1-1-37 1-42 5-5 15-2z" fill="#534973"/>
<path transform="translate(1655,958)" d="m0 0h4l-2 11-6 18-4 10-7 11-8 7-3 1h-7l-15-6-7-4-2-1-11-1-1-4 3-6 10-7 27-15 8-5 12-5z" fill="#8974B1"/>
<path transform="translate(966,1187)" d="m0 0h56l17 1-1 16-1 6h-95l1-8 4-10 3-4z" fill="#524872"/>
<path transform="translate(1276,1187)" d="m0 0h44l16 1 6 8 6 12v2h-95l-4-10-2-7v-5z" fill="#524872"/>
<path transform="translate(1126,1187)" d="m0 0h46l15 1 4 10 2 8v4h-95v-22z" fill="#524972"/>
<path transform="translate(824,1187)" d="m0 0h18l48 1-3 10-6 12h-89l-4-1 1-4 9-14 4-3z" fill="#524871"/>
<path transform="translate(1406,1188)" d="m0 0h87l6 4 12 12 2 5-2 1h-87l-6-2-10-14z" fill="#524972"/>
<path transform="translate(654,1188)" d="m0 0h87l-2 5-11 14-2 2-4 1h-69l-19-1v-3l10-10h2v-2z" fill="#524871"/>
<path transform="translate(1028,578)" d="m0 0h1v8l-3 13-3 1v26l1 4v10l-11 6-5 4-10-2-16-6-1-4 10-16 7-9 1-2h2l2-5 9-10 8-10 5-6z" fill="#FDFDFD"/>
<path transform="translate(757,716)" d="m0 0h52l2 4v8l-1 3-75 1h-21l-6-2v-11l1-2z" fill="#C1C9D7"/>
<path transform="translate(1027,599)" d="m0 0 6 1 1 1 1 29 1 8 9 3 9 5 6 7v3h2l7 17v6l-3 2-5-1-4-8-3-8-8-9-9-5-1-2h-9l-7 5-3 4h-2l-1 6-6 9-3 5-3 1-1-2-4-2 1-6 7-14 9-10 8-4h2l-1-10v-29z" fill="#655F8E"/>
<path transform="translate(724,514)" d="m0 0h8l2 1 1 22 4 1 20 1v12h-25l-1 22-3 2-6-1-2-2-1-21-17-1-7-2v-11h24l1-21z" fill="#FCFDFD"/>
<path transform="translate(861,590)" d="m0 0h24l58 1v1h-64l-17-1 1 36h41l2 1-2 4-15 14-10 10-7 8-5 4-4 1v68h-1l-1-109z" fill="#CAE0EE"/>
<path transform="translate(1466,598)" d="m0 0 5 1 8 6 2 5h2l5 11 3 10 1 7 1 26v56l1 12-1 7-1 35v7l2 12v26l-2 9 3 9-2 7-2 18-2 140-1 28h-1v-73l1-97 1-41 2-13v-15l-2-13-1-26v-31l-1-84-2-13-5-12-9-10z" fill="#8B9DD0"/>
<path transform="translate(1190,654)" d="m0 0h10l8 3 6 7 2 5v8l-6 9-4 3-3 1h-15l-7-3-6-8v-12l6-8 3-1v-2z" fill="#BFC5D4"/>
<path transform="translate(1167,539)" d="m0 0h24v1h-17l9 13 5 11 4 14 5 28 7 25 3 8-1 4-7 3-1 7 2 1h-9l3-1v-6l-15 7-17 6-2 3 3 1 1 4 4 1 4 3-5 1-15-11 2-4 20-8 18-6h2l-3-31-4-22-6-17-7-21-2-8-4 1-5 19-1-4 4-20z" fill="#C3CCDA"/>
<path transform="translate(612,1295)" d="m0 0 42 1 4 1-1 6-5 6-7 10-6 8-3 3-6 2h-58l-40-1-10-1 1-5 11-13 6-7 11-8 7-1zm-39 3-14 3-11 7-5 6-3 5 1 3 5 3 15 3 25 1h39l10-2 5-5 3-4v-3l4-2 2-4v-8l-6-2-7-1z" fill="#595580"/>
<path transform="translate(1040,538)" d="m0 0h28l-2 28v32l2 36 4 44h-2l-4-9v-2h2v-10l-3-37-1-17v-43l1-17h-3l-2 4-5 4-5 5-9 8-4 8-4 16v12l-9 1-1 25h-1v-26l4-1 2-13v-7l-3 1-2 4-9 10-9 11-4 6h-2l-2 5-9 12-6 10v3l10 4 13 4h4l-2 4-2 1-21-8-6-3-1-3 6-12 13-18 12-15 9-11 8-9 8-11 9-15 4-5 5-5-24 3-12 2h-5l4-2 13-3z" fill="#CDE3F0"/>
<path transform="translate(624,815)" d="m0 0h1l1 8v37l-1 27v81l1 75 1 30v32l3 36 2 7 3 7 4 6 5 4 8 4v3l-13 5-16 8-15 10-7 4-3 1-8-4-15-9h-2l-2 2-1-2v-6l12 6 13 8 4 1 7-4 8-7 15-8 15-5 2-2-10-6-2-4-3-1-4-9-2-9v-30l-2-16v-23l-1-39v-47l1-110v-47z" fill="#8B9DCF"/>
<path transform="translate(1093,437)" d="m0 0h23l9 3 2 2 7-2 4 1-8 1v10l-3 8-5 2v2l-10 3h-12l-4-1v-2l-5-1-5-4-2-5 1-12 5-4z" fill="#F6D2C4"/>
<path transform="translate(1662,1051)" d="m0 0 4 1v2h-2v3l-7 6h-2v2l-8 7-3 1v3l-5 5-11 12-9 10-8 8-6 7-1 3-4 2-8 11-9 11-6 8-7 8-7 10-9 14-5 4-4-2 1-5 8-11 5-6 5-9 9-10 11-15 9-11 9-10 5-5h2l2-4 7-8 8-7 19-19 9-7 6-8z" fill="#FEFEFE"/>
<path transform="translate(719,1319)" d="m0 0 1 2-1 5 1 3 9-1v2h167l41-1h79l4-1 7 1h201l5-3 2-4 1 9-3 1h-492l-24-1-3-1 2-6z" fill="#595580"/>
<path transform="translate(1235,1323)" d="m0 0 2 1 1 8-4 2-57 1h-183l-87-1-184-1-9-1-2-1v-3h2v2l27 1h495z" fill="#7279B6"/>
<path transform="translate(1680,722)" d="m0 0h2l-3 9-4 9-5 13-8 21-5 18-5 27 22-6 15-4h7v2l-9 3-13 4-20 8-2 2-4 23-1 10-2 1-2 4-2-1v-9l1-4-4-1v4h-2l-6-14-3-9-9-17v-3h2l5 7 8 17 4 7 2 3h2l3-14 4-29 6-22 7-20 7-15z" fill="#CADFED"/>
<path transform="translate(613,1291)" d="m0 0 25 1 22 2 1 5-3 6-12 18-3 4h-2l-2 4-5 3-22 1h-48l-41-2-6-1v-5l8-10h2l2-4 6-7 6-5h2v-2l10-6 11-1zm-1 4-54 1-9 2-9 7-7 8-10 12-1 5 17 1 36 1h55l6-2 9-11 7-10 6-8v-4l-4-1z" fill="#6E7AB8"/>
<path transform="translate(1551,744)" d="m0 0h8l7 3-2 5-10 16-7 14-8-1-13-4-2-8v-7l4-5 10-6z" fill="#A45397"/>
<path transform="translate(1066,395)" d="m0 0h13l18 5 16 8 14 6 13 5 6 8 5 5 3-1h9l5 4 1 3v12l-3 6-5 6h-2l-2 5-2 3 2 1-4 2v-6l6-11h2l4-10v-8l-3-3-6 6h-5l-2-3-7 1-14 3-2 1-2-3-8-2h-23l-7 4-1 12-1-2-6-1-7 2-4 6-3 3-2-1 5-6 2-10 9 2h3l3-7 4-4 11-3 3-2h7l14 5h13l9-3-5-10-11-5-16-7-21-10-10-3h-18l-16 6-8 5-4 5-4 11-4-2 2-1 1-6 8-11 12-6z" fill="#8984BD"/>
<path transform="translate(1518,1295)" d="m0 0h49l27 1 7 4 9 9v2l3 1 9 11 4 5v3l-2 1h-93l-17-1-7-3-13-18-5-9 1-4 1-1zm4 2-14 1-6 2h-6v3h-2l2 6 8 11 6 5 10 3 9 1 28 1h35l15-1 4-1 7-1 2-1-2-5-11-12-5-5-5-4-10-2h-16l-15-1z" fill="#595580"/>
<path transform="translate(1574,1291)" d="m0 0h8l12 2 9 5v2l4 2 5 6 5 5 10 12v4h2l1 3-2 2h-107l-12-2-5-4-11-16-6-10-1-6 5-3 21-1zm-56 4-27 1-2 2 1 5 9 14 9 12 6 2 17 1h93l2-1-1-5-11-12-2-3h-2l-2-4-8-8-6-3-27-1z" fill="#7478B6"/>
<path transform="translate(599,653)" d="m0 0h5l-2 1 3 8 2 10-1 18-1 10-1 46 1 7 1 21v14l3 8 5 2 8 1v1h-12l-6-4-3-4-1-18-1-92z" fill="#58547F"/>
<path transform="translate(658,1254)" d="m0 0 33 1-2 5-12 17h-2l-2 5-3 2-5 1h-67l-30-1-4-1 2-5 10-10 4-5 10-7 2-1zm-54 2-7 1v3l-5 1-10 5-1 3h-2l-1 2v7l3 2 12 2 17 1h52l9-2 10-12 5-8-2-3h-3v-2z" fill="#595580"/>
<path transform="translate(591,1252)" d="m0 0 97 1 4 1-1 6-18 24-6 3-6 1h-56l-37-2-7-2 1-5 5-7h2l2-4 16-14zm67 2-66 1-9 6-6 5-7 8-6 7v2l7 1 27 1h67l6-2 4-4v-2h2l10-14 4-6v-2z" fill="#7B76B4"/>
<path transform="translate(1487,1252)" d="m0 0h62l9 1 7 5 4 5 5 5 9 11 3 6-5 2-15 1h-78l-12-2-6-5-10-14-5-10 1-3 8-1zm-3 2-27 1 2 6 7 11 8 10 4 2 13 1h91l2-2-9-11-7-7-3-4h-2v-2l-6-4-20-1z" fill="#6A7BB9"/>
<path transform="translate(1659,1181)" d="m0 0h16l1 4-7 11-9 10-8 8-3-1-4-7-1-10 4-9 8-5z" fill="#8873B0"/>
<path transform="translate(1538,817)" d="m0 0 5 1 1 9-6 24-3 6-3 2h-6l-2-3v-28l1-4z" fill="#A45397"/>
<path transform="translate(466,1064)" d="m0 0h2l7 18 9 17 10 14 4 6 8 7 5 5v2l4 2v2l4 2 10 9 12 9 17 13 5 5 2 3-1 3-4-6-9-6-12-9-13-10-11-9-2-4h-2l-7-8-5-4-2-1 2 27 3 14-1 4-3-1-3-22-1-1-2-20v-7l-4-8-10-12-4-7-8-24z" fill="#8A9CCF"/>
<path transform="translate(618,648)" d="m0 0h2l1 110 3 7 2 2 24 1h115l50-2 13-2-1 2-9 2-32 2-29 1-76 1-52-1-7-3-3-6-2-113z" fill="#A5A7CC"/>
<path transform="translate(1458,1216)" d="m0 0h64l9 6 10 12 6 8-1 4-4 1-73 1-7-1h-9l-8-2v-2l94 1 4-1-2-4-8-10-6-7-9-2-80-1v-2z" fill="#7877B5"/>
<path transform="translate(624,1217)" d="m0 0h68l26 1v5l-5 8h-2l-2 4-9 10-5 2h-66l-26-1-3-1v-5l4-5h2l1-4 6-7 8-6zm3 2-7 3-16 16-1 4 1 1 13 1h80l5-3 11-13 4-7-2-2z" fill="#7179B7"/>
<path transform="translate(1190,654)" d="m0 0h10l8 3 6 7 2 5v8l-6 9-4 3-3 1h-15l-7-3-6-8v-12l6-8 3-1v-2zm4 5-9 4-3 3-1 3v9l5 6 4 2h10l6-3 4-5 1-7-4-8-5-3z" fill="#584E78"/>
<path transform="translate(1516,1097)" d="m0 0h1l1 10-1 44-4 12-3 5v2l10 3 16 8 4 3v2h2l4 5 8 6 10 9 12 11 7 6v2h2l14 14v2l4 2 10 9 10 10 8 7 3 3-1 3-4-4v-2l-4-2-9-8-5-4v-2l-4-2-16-15-8-8-7-6v-2l-4-2-8-7-5-5-13-12-5-4-5-5-6-3-5-4-14-5-4-1-1-4 6-9 2-13 1-38z" fill="#8B9DD0"/>
<path transform="translate(1484,1254)" d="m0 0h53l20 1 6 4v2l-5-2-7-2h-81l-3 3 1 5-1 2h2l3 7 5 5 6 3 41 1h55l-5-9-5-5v-3l9 9 6 8-2 2h-91l-13-1-5-3-10-13-6-11v-2z" fill="#595580"/>
<path transform="translate(728,512)" d="m0 0 6 1 2 2 1 20 22 2 2 3v9l-2 4h-23v12l-2 11-1 1h-11l-3-1v-23l-20-1-4-3v-12l2-2h23v-20l2-2zm-4 2-2 2-1 21h-24v11l7 2 17 1 1 21 4 3 6-1 1-1 1-22h25v-12l-20-1-4-1-1-22-2-1z" fill="#A8B3D3"/>
<path transform="translate(1e3 676)" d="m0 0 4 2-2 3-2 14v6l4 6 3 4v2h-3l-5-5 1 24 3 3 7-1v-2l6-1v2l5 2-1 6-3 3h-4v-2l-5-1-12-3-2-3-1-35-1-4h2l2-9 1-6 1-2h2z" fill="#C1CBDA"/>
<path transform="translate(614,649)" d="m0 0 4 1 1 47v60h-1l-1-18-1-87-8 1h-9v132h-1l-2-47-1-60h2l1-26z" fill="#8193C9"/>
<path transform="translate(1206,688)" d="m0 0 2 1-11 13-10 13-14 19-10 14-10 15-17 25-12 18-12 19-11 16-4 2 4-8 8-11 9-14 10-16 10-15 13-19 8-12 12-17 10-13 12-16 7-8 1-3h-14l-1-2h17z" fill="#C3CDDB"/>
<path transform="translate(1578,877)" d="m0 0 4 2 9 12 10 15 11 23 3 1 8-16 4-10 3-11 2 1-3 12-4 9-5 10-2 6-4 4-2 1-1 9-7 12-5 9-7 11-6 10-2 5-1-3 6-12 9-15 10-18-1-9-6-17-9-17-11-18-3-4z" fill="#C1C9D7"/>
<path transform="translate(627,1219)" d="m0 0h88l2 3-2 1v-2h-80l-10 3-7 6-2 5v3l5 1 5 2 29 1h18l26-1h3l-5 3h-80l-13-1-1-3 7-8 6-7 7-5z" fill="#595580"/>
<path transform="translate(1036,559)" d="m0 0 1 3-3 5-3 13-2 2-1-3-3 1-2 4-9 10-9 11-4 6h-2l-2 5-9 12-6 10v3l10 4 13 4h4l-2 4-2 1-21-8-6-3-1-3 6-12 13-18 12-15 9-11 8-9 8-11z" fill="#CBE2F1"/>
<path transform="translate(1620,926)" d="m0 0h2l-1 7-11 23-7 11-7 14v5l-8 7-5 9-5 2 1-4 10-20 12-19 6-11 3-5 1-9 5-3z" fill="#FEFEFE"/>
<path transform="translate(648,1317)" d="m0 0v3l-5 7h-2l-2 4-5 3-22 1h-48l-41-2-6-1v-5l7-7 1 4-3 6h17l36 1h55l6-1 1-3 5-3z" fill="#7B76B4"/>
<path transform="translate(610,802)" d="m0 0 13 1v21l-1 4-3 1h-11l-2-1v-13l2-11z" fill="#FEFEFE"/>
<path transform="translate(654,1188)" d="m0 0h87l-2 5-2 2-1-3-6-2h-74v2h-3v2l-6 4-5 5v5l10-1 10 1h39l21-1 5-2 3-2-2 4-2 2-4 1h-69l-19-1v-3l10-10h2v-2z" fill="#595580"/>
<path transform="translate(1656,954)" d="m0 0h3l-1 4-12 5-14 6-10 6-23 13-8 6h-2l-3 9-6 3h-5l1-5 6-9 1 3-5 9 5-3 5-9 7-6v-5l2-1v2l16-8 19-9 21-9z" fill="#C9DCEA"/>
<path transform="translate(1574,1291)" d="m0 0h8l12 2 3 3h-79l-29 1-1 5-2-3v-3l5-3 21-1z" fill="#6D7AB8"/>
<path transform="translate(677,457)" d="m0 0 2 1v12l-13 1-35 1-7 1-5 4-1 75-3 1-16-5-1-1v-36h1l1 34 16 5v-69l2-7 7-4 9-1 43-1z" fill="#8A78B4"/>
<path transform="translate(1102,431)" d="m0 0h7l14 5h13l9-3 2-1 2 5-21 5-2 1-2-3-8-2h-23l-7 4-1 12-1-2-6-1-7 2-4 6-3 3-2-1 5-6 2-10 9 2h3l3-7 4-4 11-3z" fill="#8B9DD0"/>
<path transform="translate(1040,538)" d="m0 0h13l2 2-11 15-7 13-4 20v12l-9 1-1 25h-1v-26l4-1 3-17 3-9 2-7 4-11 8-11 5-5-24 3-12 2h-5l4-2 13-3z" fill="#C3CEDC"/>
<path transform="translate(1431,1219)" d="m0 0h87l9 2 10 11 7 9-1 3-4 1h-19l-68-1-8-1-3-4 1-2 1 3 9 1h10l6 1h65l6-1-5-9-8-9-4-1-27-1h-59l-1 2h-2l-1 3-2-6z" fill="#595580"/>
<path transform="translate(682,521)" d="m0 0h2l-2 7-2 4v19l5 14 6 9 12 9 14 5 8 2 14-1 12-5 12-9 7-8 1-3h2l-2 6-9 10-8 6-11 5-12 2-12-1-16-5-10-8-5-5-6-8-4-10-1-5v-13l2-10z" fill="#AEB9D5"/>
<path transform="translate(1489,778)" d="m0 0h1l2 13v15l-2 13-1 41-2 170h-1v-88l1-113 2-20v-18l-1-7z" fill="#C1C7D5"/>
<path transform="translate(1093,437)" d="m0 0h23l9 3 2 2 7-2 4 1-8 1v10l-3 8-5 2v2l-10 3h-12l-4-1v-2l-5-1-5-4-2-5 1-12 5-4zm12 1-12 1-7 7v6l4 6h2v2l7 3h15l7-2 4-5 1-2v-10l-4-4-9-2z" fill="#C1C7D5"/>
<path transform="translate(646,612)" d="m0 0h145l19 1-2 2h-20l-15-1h-19l-54 1h-54z" fill="#CCE4F2"/>
<path transform="translate(1151,533)" d="m0 0 10 2 32 1v1l-11 1v1h-15l-2 14-3 12-2-2-3-17-1-2 1-3-9-3-2-3z" fill="#8FA0D0"/>
<path transform="translate(1556,1253)" d="m0 0 5 2 5 5 6 5 6 8 7 9 1 3-5 2-15 1h-55v-2l2-1 69-1v-3l-14-15-5-5v-2l-6-3-20-1v-1z" fill="#7379B6"/>
<path transform="translate(1680,722)" d="m0 0h2l-3 9-4 9-5 13-8 21-5 18h-2l-1-2-3 12-2 1 1-7 4-15 7-20 7-15z" fill="#C1C7D5"/>
<path transform="translate(568,1125)" d="m0 0 14 1 19 2 22 1 2 2-1 4h-18l-33-5-5-3z" fill="#CCE4F2"/>
<path transform="translate(1143,424)" d="m0 0 8 8 3-1h9l5 4 1 3v12l-3 6-5 6h-2l-2 5-2 3 2 1-4 2v-6l6-11h2l4-10v-8l-3-3-6 6h-5l-4-7v-2h-2l-2-4z" fill="#8978B3"/>
<path transform="translate(1e3 708)" d="m0 0 4 2 7 9 5 8v3h-3v2h-2v2l-7 2-4-4z" fill="#FDFDFD"/>
<path transform="translate(1412,1187)" d="m0 0h83l6 4 14 16 1 3-6 2h-64l-8-1v-1l75-1-6-8-10-10-4-2-81-1z" fill="#7C76B3"/>
<path transform="translate(1051,649)" d="m0 0 2 1v3l3 1 3 3h2l5 8 3 8v6l-3 2-5-1-4-8-3-8-5-6v-2h2l-3-4 1-2 2 1z" fill="#554C76"/>
<path transform="translate(891,1062)" d="m0 0 23 3 28 5 36 9 1 10 1 4-4-1v-11l-17-4-40-8-24-4-2 1-1 17h-2v-20z" fill="#B9C4D8"/>
<path transform="translate(1655,958)" d="m0 0h4l-2 11-6 18-4 10-7 11-8 7-3 1h-7l-15-6-7-4-2-1-11-1-1-4 2-4 1 4 16 5 13 7 4 1h7l6-4 7-10 7-16 6-17 1-6-6 1 2-2z" fill="#8B9DD0"/>
<path transform="translate(728,512)" d="m0 0 6 1 2 2 1 20 22 2 2 3v9l-2 4h-23v12h-1l-1-14h25v-12h-20l-5-2v-22h-10l-1 1-1 21-3 1-1-3h2v-20l2-2z" fill="#ABB8D5"/>
<path transform="translate(1697,919)" d="m0 0h14l9 4 8 7 4 2v2h2l1-4 1 9-4-1-12-11-5-4-3-1h-10l-13 2-8 4-8 6-5 6-7 14-4-1 3-5 6-12 7-7 10-6z" fill="#8B9DD0"/>
<path transform="translate(1100,1259)" d="m0 0h1l1 24 16 1h93l1-3 1 4-8 2h-88l-15-1-2-5z" fill="#7179B7"/>
<path transform="translate(679,1273)" d="m0 0v3l-7 9-5 2-6 1h-56l-25-2v-1l85-1 8-2 2-5h2z" fill="#7079B7"/>
<path transform="translate(1529,950)" d="m0 0 5 5 4 5 13 18 9 16 7 17-5 5-3-11-5-12-6-11-15-24-4-6z" fill="#C8DAE8"/>
<path transform="translate(1648,803)" d="m0 0 2 1-2 17-5 30-3 1-2-1v4h-2l-6-14-3-9-9-17v-3h2l5 7 8 17 4 7 2 3h2l3-14z" fill="#C1C7D5"/>
<path transform="translate(1654,793)" d="m0 0h2l-1 8-3 18 22-6 15-4h7v2l-9 3-13 4-20 8-2 2-1 6h-2l1-8 3-4-2-1v-13z" fill="#C1C7D5"/>
<path transform="translate(1097,1222)" d="m0 0h1l1 11v10h104v3l-82 1-4 1v-2l-4 1-11-1-4-2-1-3z" fill="#7279B6"/>
<path transform="translate(573,1186)" d="m0 0 5 2 14 8 2 2v4l-4 2-4-1-4 3-4-1-3-4-3-9v-5z" fill="#8A75B1"/>
<path transform="translate(1194,596)" d="m0 0h1l5 22 7 21-1 4-9 3-1-16-1-19-2-8v-6z" fill="#CBE2F0"/>
<path transform="translate(614,649)" d="m0 0 4 1 1 47v60h-1l-1-18-1-87-8 1h-9v29l-2-2 1-28z" fill="#8A80B9"/>
<path transform="translate(1283,1073)" d="m0 0h10l3 12-4-1-2-8-22 3-54 9-7 1 1-3z" fill="#C2CBD9"/>
<path transform="translate(1206,688)" d="m0 0 2 1-11 13-10 13-14 19-10 14-6 9-2-1 2-5 14-20 10-13 12-16 7-8 1-3h-14l-1-2h17z" fill="#C3CEDC"/>
<path transform="translate(1192,644)" d="m0 0 3 1-1 2-15 7-17 6-2 3 3 1 1 4 4 1 4 3-5 1-15-11 2-4 20-8z" fill="#CBE3F1"/>
<path transform="translate(661,1186)" d="m0 0h72l9 1-1 6-6 7v-3l6-9-87 1-6 5h-2v2l-8 7-2 1 1-4 8-7 4-4 4-2z" fill="#7977B4"/>
<path transform="translate(1067,681)" d="m0 0h1l2 13 1 18-2 18-4 9-3 2h-4v-3l3-1 3-8 2-12v-18l-2-16 2 2z" fill="#C5D2E0"/>
<path transform="translate(644,625)" d="m0 0h11v1h70v1l77 1v1h-126l-30-1-2-1z" fill="#CCE4F2"/>
<path transform="translate(1063,471)" d="m0 0h25l-1 5-5 4-4 1h-10l-6-5-1-4z" fill="#965F9C"/>
<path transform="translate(677,471)" d="m0 0h2l3 8 7 2h90v2h-94l-7-2z" fill="#CCE4F2"/>
<path transform="translate(1015,647)" d="m0 0 2 1-6 8-4 8 4-3 1 4-6 11-4 2-1-2-4-2 1-6 7-14 3-3 3 1z" fill="#58507A"/>
<path transform="translate(1246,904)" d="m0 0 2 2 10 27 8 16 7 12 10-2 24-9h2v2l-14 6-19 7h-3v-2h-5l-3-7-3-5-5-14-11-30z" fill="#C3CCDA"/>
<path transform="translate(1036,559)" d="m0 0 1 3-3 5-3 13-2 2-1-3-3 1-2 4-9 10-9 11-4 4v-2l-2-1 18-22 8-9 8-11z" fill="#CBE3F1"/>
<path transform="translate(719,499)" d="m0 0h12l12 2 16 7 11 10 5 9-1 2-7-11-8-7-9-5-11-3h-28l-11 4h-4v2l-8 7-4 5 1-5 7-8 14-7z" fill="#B0BAD5"/>
<path transform="translate(1173,547)" d="m0 0 3 3 5 9 5 12 1 3 2 15 5 26v7h-2l-4-26-3-11-10-28z" fill="#CCE4F2"/>
<path transform="translate(1046,536)" d="m0 0h30l2 2-8 1v9l-2 4-1 13h-1v-15l2-12-15 1h-13l-13 1-20 5-2-1 1-2h2l1-3 16-1z" fill="#97A6D1"/>
<path transform="translate(1293,837)" d="m0 0 4 1h-2v2l-29 11-28 11-6 3-2 3-5-1h-8l3-2 12-3 12-6 46-18z" fill="#C4CFDD"/>
<path transform="translate(365,1108)" d="m0 0 9 1-3 2-6 1v2l-17 6-16 8-6 2v-3l11-7 17-8z" fill="#8B9DD0"/>
<path transform="translate(1037,640)" d="m0 0 8 1 9 5 6 7v3h2l1 4-7-4-4-4h-3l2 4-3 1-9-6-2-2h4l-4-4 3-1v-3z" fill="#6D6A94"/>
<path transform="translate(615,1225)" d="m0 0v3l-10 10-1 4 13 1 79 1v1l-20 1h-73l-3-1v-5l4-5 8-7z" fill="#7E75B3"/>
<path transform="translate(633,1204)" d="m0 0 3 1-2 3 19 1h69l5-2 3-2-2 5-5 2h-47l-36-1-9-1v-3z" fill="#7C76B3"/>
<path transform="translate(1066,542)" d="m0 0h1l-1 24v32l2 36 4 44h-2l-4-9v-2h2v-10l-3-37-1-17v-43l1-17z" fill="#C6D4E2"/>
<path transform="translate(618,648)" d="m0 0h2l1 110 3 7 2 3-5-2-2-4-2-113z" fill="#C1CCDC"/>
<path transform="translate(644,646)" d="m0 0 2 2 2 9 3 2 26 1 85 1 15 1v1l-107-1-24-1-2-1z" fill="#CCE4F2"/>
<path transform="translate(1008,712)" d="m0 0 5 5 6 8 8 13 11 15 1 4-4-4-1-2h-3l-6-10-3-2v3l-2-1 1-6-4-2v-2l-4-1h3l-4-8-6-9z" fill="#C7DBEB"/>
<path transform="translate(1519,575)" d="m0 0 4 2 1 2-1 7 1 55-3-2-2-50-1-9z" fill="#8973B0"/>
<path transform="translate(1048,431)" d="m0 0h7l10 5 3 3-1 2-7-3h-27l-4 1-1 3h-2l1-5 2-2 12-2z" fill="#8B9BCE"/>
<path transform="translate(591,1252)" d="m0 0 97 1 4 1-1 6-9 12-2 1 2-5 8-11 1-2h-100l-4 1z" fill="#697BB9"/>
<path transform="translate(607,801)" d="m0 0h10l7 1 1 1v12l-1 14-4 2h-14l-3-3v-7l3-18zm3 1-2 2-2 11v13l2 1h11l3-1 1-4v-21z" fill="#C9DFEE"/>
<path transform="translate(1305,591)" d="m0 0h95v1l-43 1-4 1h-34l-14-2z" fill="#C6D4E2"/>
<path transform="translate(1416,1325)" d="m0 0 3 4-1 3h-109l-8-1v-1h115z" fill="#595580"/>
<path transform="translate(1656,954)" d="m0 0h3l-1 4-12 5-14 6-15 9-2-1 1-2-1-2 17-8 21-9z" fill="#C1C8D6"/>
<path transform="translate(998,675)" d="m0 0h3v4h-2l-2 13-2 4-3 1-9-8 1-3 5-2 8-4v-2h3v-2z" fill="#CBE2F0"/>
<path transform="translate(314,1070)" d="m0 0 3 2-9 4-18 5-5 2h-7l4-4 13-5 11-3z" fill="#99A8D1"/>
<path transform="translate(1194,659)" d="m0 0 8 1 6 4 3 7-1 7-1-4-2-6-5-5-12 1-5 4h-2l2 9 4 6 11 2v1h-10l-6-4-3-4v-9l3-5 4-3z" fill="#8385BF"/>
<path transform="translate(1548,744)" d="m0 0 3 1-13 7-8 5-8 1-1-1 1-11 5 2 1 3 9-3z" fill="#9088BD"/>
<path transform="translate(781,1244)" d="m0 0h84v1l-5 1-60 1-17-1z" fill="#7777B5"/>
<path transform="translate(1044,731)" d="m0 0h6l3 5v7l-10 1-3-5 1-5z" fill="#655B8A"/>
<path transform="translate(771,564)" d="m0 0h2l-2 6-9 10-8 6-11 5-12 2-12-1v-1l20-2 12-5 12-9 7-8z" fill="#B8C5DA"/>
<path transform="translate(1608,928)" d="m0 0 4 5 2 2-2 1-1 9-7 12-5 9-7 11-6 10-2 5-1-3 6-12 9-15 10-18 1-8z" fill="#C5D3E1"/>
<path transform="translate(1570,1148)" d="m0 0v3l-7 8-5 8-8 11-4 6 1 4 5-2 4-3-2 5-3 4h-5l-3-3v-5l8-12 10-14z" fill="#CCE4F2"/>
<path transform="translate(1194,618)" d="m0 0h2l2 25v10l2 1h-9l3-1v-9l-1-11v-11z" fill="#C1C9D8"/>
<path transform="translate(719,550)" d="m0 0 3 1 1 21 3 2 6-1 1-17 2-3v20l-2 4h-11l-2-1v-21l1-3h-2z" fill="#C4CFDD"/>
<path transform="translate(617,507)" d="m0 0h1v45l-3 1-16-5-1-1v-36h1l1 34 12 4h4z" fill="#8B8EC4"/>
<path transform="translate(1051,649)" d="m0 0 2 1v3l3 1 3 3h2l4 6v6l-2 1 1 2-5-2-4-10-4-3-3-5 1-2 2 1z" fill="#5A5581"/>
<path transform="translate(1125,799)" d="m0 0h2l-2 5-11 18-8 12-7 9-2-1 7-11 7-10 7-11z" fill="#BFC9DA"/>
<path transform="translate(1146,432)" d="m0 0 3 3v2l-21 5-2 1-2-3-10-3v-3l9 2h13l9-3z" fill="#8B9DD0"/>
<path transform="translate(1013,731)" d="m0 0h4v2l5 2-1 6-3 3h-4v-2h-2v-2l-4-2 3-6z" fill="#574D78"/>
<path transform="translate(553,1293)" d="m0 0m-1 1m-3 1 9 1v1l-9 2-7 6h-2l-2 4-7 7-5 6-2-4 3-1 2-4 6-7 6-5h2v-2z" fill="#7478B6"/>
<path transform="translate(1566,863)" d="m0 0 5 2 4 4v2h2l9 11-1 2-3-3v-2h-3l5 7-1 2-9-11-7-9z" fill="#8B9DD0"/>
<path transform="translate(1517,1155)" d="m0 0 3 1 8 13 1 6-6-1-3-4-3-8-1-1v-5z" fill="#CCE4F2"/>
<path transform="translate(1206,688)" d="m0 0 2 1-11 13-10 13-3 3h-2l2-4 10-13 6-7 1-3h-14l-1-2h17z" fill="#C4D1DF"/>
<path transform="translate(622,1295)" d="m0 0h34l3 1v8l-7 10-5 5-7 8v-3l7-9 7-10 3-4 1-4-36-1z" fill="#8274B2"/>
<path transform="translate(1659,1181)" d="m0 0h16v1l-18 2-7 5-2 3v13l3 5 3 2-4 2-5-8-1-10 4-9 8-5z" fill="#8B9DD0"/>
<path transform="translate(942,1071)" d="m0 0 9 1 27 7 1 10 1 4-4-1v-11l-17-4-19-4z" fill="#BDC8DA"/>
<path transform="translate(624,1217)" d="m0 0h58v1l-59 1-1 3-9 6-7 6 2-4 5-6 8-6z" fill="#6A7BB9"/>
<path transform="translate(962,1244)" d="m0 0h72l-2 2-7 1-46-1-17-1z" fill="#7777B5"/>
<path transform="translate(1655,958)" d="m0 0h4l-2 11-6 18-4 10-4 2 2-6 8-21 3-12-6 1 2-2z" fill="#8A9CCF"/>
<path transform="translate(1578,877)" d="m0 0 4 2 9 12 8 12-1 2h-1l-1 2-9-14-6-10-3-4z" fill="#C1C7D5"/>
<path transform="translate(1134,440)" d="m0 0 4 1-8 1v10l-3 8-5 2v2l-13 1v-1l11-1 2-4 3-5v-11l3-2z" fill="#B7BFD4"/>
<path transform="translate(1691,702)" d="m0 0h2l-3 9-8 16-1-3 1-2h-2l-2 6-3 6-1-3 10-19z" fill="#8B9DD0"/>
<path transform="translate(749,537)" d="m0 0h10l2 3v9l-2 4h-23v12h-1l-1-14h25v-12h-10z" fill="#A4ADD0"/>
<path transform="translate(1165,433)" d="m0 0 3 2 1 3v12l-3 6-5 6h-2l-2 5-2 3 2 1-4 2v-6l3-6 6-5 4-8v-11z" fill="#8973B0"/>
<path transform="translate(524,1320)" d="m0 0v3l-3 4-1 4 39 1 11 1-3 2-44-2-6-1v-5z" fill="#697CBA"/>
<path transform="translate(1622,931)" d="m0 0 1 3-12 24-8 13-5 10 2 1h-3v-5l3-5 2-5 9-15 9-19h2z" fill="#C7D8E6"/>
<path transform="translate(1556,1253)" d="m0 0 5 2 5 5 6 5 6 8 7 9 1 3-4 1 1-3-9-11-11-11v-2l-6-3-20-1v-1z" fill="#7578B6"/>
<path transform="translate(1024,374)" d="m0 0 1 3-6 10-2 7v7l3 8 1-6h1v9h-3l-4-7-1-2v-12l7-14z" fill="#8376AD"/>
<path transform="translate(1137,352)" d="m0 0h14l11 4 5 5 1 2-7-2-9-4-3-1-5-1-7-2z" fill="#8A78B3"/>
<path transform="translate(1031,639)" d="m0 0 1 2 8 1v2l-2 1 4 5-6-2h-9l-5 1 2-3-2-2z" fill="#534972"/>
<path transform="translate(1031,537)" d="m0 0h22v1l-26 2-20 5-2-1 1-2h2l1-3 16-1z" fill="#899BCE"/>
<path transform="translate(1049,444)" d="m0 0 5 1 3 3v5l-2 3-4 1-3-3-1-7z" fill="#8A83BC"/>
<path transform="translate(1489,1296)" d="m0 0 2 1-1 4 7 12 9 12 4 4 4 2-5 1-5-4-11-16-5-8v-7z" fill="#7678B5"/>
<path transform="translate(615,655)" d="m0 0h1l1 13v44h-1l-1-43-4-2 1-7 2-1z" fill="#595580"/>
<path transform="translate(1608,794)" d="m0 0 4 2 4 6 9 15-1 2-4-5v-2h-2l-1 3-8-16z" fill="#8B9DD0"/>
<path transform="translate(1029,461)" d="m0 0 12 1h23l-4 3-4 1h-18l-9-4z" fill="#B9C0D3"/>
<path transform="translate(1010,663)" d="m0 0 1 4-5 9-4 2-1-2-4-2 1-6 3-4 1 6 3-1z" fill="#605785"/>
<path transform="translate(999,607)" d="m0 0h2v4h-2l-2 5-9 12-5 3 1-4 12-17z" fill="#C9DCEA"/>
<path transform="translate(1102,444)" d="m0 0h5l3 6-1 5-1 1h-6l-1-2v-8z" fill="#7B74A9"/>
<path transform="translate(494,1129)" d="m0 0 2 2 4 25 2 9-1 4-3-1-3-22z" fill="#C2CAD8"/>
<path transform="translate(1052,400)" d="m0 0 3 1-14 7-5 6-4 11-4-2 2-1 1-6 8-11 7-4z" fill="#8987BF"/>
<path transform="translate(670,466)" d="m0 0 7 1-3 2-40 1-9 1-5 2 1-4 5-1 39-1z" fill="#595580"/>
<path transform="translate(1067,681)" d="m0 0h1l2 13v15l-2 1-4-23 1-4 1 2z" fill="#BCC6D8"/>
<path transform="translate(1715,921)" d="m0 0 5 2 8 7 4 2v2h2l1-4 1 9-4-1-12-11-5-4z" fill="#8E9FD0"/>
<path transform="translate(1538,710)" d="m0 0 2 3-12 20h-2l1-6 9-16z" fill="#A05B9D"/>
<path transform="translate(1293,837)" d="m0 0 4 1h-2v2l-24 9-4-2z" fill="#C5D1DF"/>
<path transform="translate(1029,442)" d="m0 0 3 1 2 9v5l-5 1-2-10z" fill="#FEFEFE"/>
<path transform="translate(1590,990)" d="m0 0 4 1-3 3h-2l-3 9-6 3h-5l1-5 6-9 1 3-5 9 5-3 5-9z" fill="#C7D8E6"/>
<path transform="translate(1119,461)" d="m0 0 1 2-4 1 4 1-8 2h-12l-4-2 2-1-2-2h18z" fill="#C1C7D5"/>
<path transform="translate(1283,1073)" d="m0 0h10l3 12-4-1-2-8-12 1v-2l-2-1z" fill="#C3CEDC"/>
<path transform="translate(1596,903)" d="m0 0 5 3 5 10-1 5-3-1-6-13z" fill="#C3CCDA"/>
<path transform="translate(729,1205)" d="m0 0v3l-3 3-3 1h-47v-1l39-1 11-2z" fill="#697CBA"/>
<path transform="translate(1523,722)" d="m0 0h1l2 6 1 2-1 3 2 1-4 8h-2l-1-9z" fill="#8B7AB4"/>
<path transform="translate(682,521)" d="m0 0h2l-2 7-2 4v19l1 7-2 1-2-8v-13l2-10z" fill="#A9B5D4"/>
<path transform="translate(1231,1082)" d="m0 0h6v2l-27 5h-3l1-3z" fill="#C2CBD9"/>
<path transform="translate(1558,996)" d="m0 0 3 3v2h2l4 10-5 5z" fill="#C8DBE9"/>
<path transform="translate(644,613)" d="m0 0h52v1h-50v2h-2v8h-1v-10z" fill="#C3CCDA"/>
<path transform="translate(1525,1220)" d="m0 0 5 1 9 10 6 8v5l-5 1 3-2-2-4-8-10-6-7z" fill="#7379B6"/>
<path transform="translate(1316,827)" d="m0 0m-2 1h2l-1 3-17 8-3-1v-2l16-7z" fill="#CBE1EF"/>
<path transform="translate(1608,928)" d="m0 0 4 5 2 2-2 1-1 9-7 12h-2l2-5 4-8 1-8z" fill="#C3CEDC"/>
<path transform="translate(1067,721)" d="m0 0h1v8l-2 9-4 3h-4v-3l3-1 4-9z" fill="#ABB8D6"/>
<path transform="translate(1427,591)" d="m0 0h13l12 2 11 4v1l-8-1-16-3-2-1-10-1z" fill="#C5D2E0"/>
<path transform="translate(1192,661)" d="m0 0h12l5 5 2 5-1 7-1-4-2-6-5-5-12 1-5 4-2-1 6-5z" fill="#899ACE"/>
<path transform="translate(1051,649)" d="m0 0 2 1v3l3 1 3 3h2l2 3-1 3h-4l-1-5-6-2-3-4 1-2 2 1z" fill="#524871"/>
<path transform="translate(365,1108)" d="m0 0 9 1-3 2-16 5-7 2v-2l12-5h3v-2z" fill="#C1C7D5"/>
<path transform="translate(1307,950)" d="m0 0h2v2l-14 6-10 3v-3z" fill="#C3CEDC"/>
<path transform="translate(599,786)" d="m0 0h1v6l3 1 5 5 2 1 13 1v1h-18l-4-4-2-3z" fill="#8287C0"/>
<path transform="translate(1456,1254)" d="m0 0h28v1h-27l4 8 1 5-4-4-3-9z" fill="#7C76B3"/>
<path transform="translate(1085,452)" d="m0 0h2l3 5 2 1v2l4 2 3 3-6-1-6-4-3-4z" fill="#B1BBD3"/>
<path transform="translate(669,1254)" d="m0 0h23l-1 6-9 12-2 1 2-5 8-11 1-2h-22z" fill="#7F75B3"/>
<path transform="translate(1065,436)" d="m0 0 4 2 5 7 3 2h-6l-1-1-1 5-2-2-2-9 2-1z" fill="#C1C7D5"/>
<path transform="translate(1490,1187)" d="m0 0 7 1 16 16 1 6-3-1h2l-6-8-10-10-7-3z" fill="#7877B5"/>
<path transform="translate(292,1075)" d="m0 0m-3 1h3l1 4-8 3h-7l4-4z" fill="#8B9DD0"/>
<path transform="translate(1489,778)" d="m0 0h1l2 13v15h-2l-1 2v-17l-1-7z" fill="#C4CFDD"/>
<path transform="translate(1160,433)" d="m0 0 5 1 2 3v11l-5 9-5 4 2-5h2l4-10v-8l-3-3-3 2z" fill="#8A9CCF"/>
<path transform="translate(1100,1259)" d="m0 0h1l1 24 16 1v1l-16 1-2-5z" fill="#7379B6"/>
<path transform="translate(771,564)" d="m0 0h2l-2 6-8 9-9 5h-3l12-9 7-8z" fill="#A3AFD2"/>
<path transform="translate(1102,431)" d="m0 0h7l5 2 1 3-15-1v-3z" fill="#8475AF"/>
<path transform="translate(648,1317)" d="m0 0v3l-5 7h-2l-2 4-5 3-2-1 1-3h3l1-3 5-3z" fill="#6E7AB8"/>
<path transform="translate(653,1187)" d="m0 0 4 1-7 4-4 2v2l-8 7-2 1 1-4 8-7 4-4z" fill="#7379B6"/>
<path transform="translate(1462,1266)" d="m0 0 4 5 9 11 3 2-4 1-8-9-5-8z" fill="#7578B6"/>
<path transform="translate(1237,859)" d="m0 0 3 1-8 5-2 3-5-1h-8l3-2 12-3z" fill="#C3CCDA"/>
<path transform="translate(1693,807)" d="m0 0h12l1 2-12 4-3-1 5-1v-2h-7z" fill="#8B9DD0"/>
<path transform="translate(1168,540)" d="m0 0 3 1 1 4-4 1-5 19-1-4 4-20z" fill="#C8DBE9"/>
<path transform="translate(720,515)" d="m0 0 3 1-1 21-3 1-1-3h2z" fill="#A8B5D4"/>
<path transform="translate(1166,740)" d="m0 0 1 2-10 15-2-1 2-5 7-10z" fill="#C4CFDD"/>
<path transform="translate(1048,431)" d="m0 0h7l2 1v3h-15l2-1v-2z" fill="#7D72A9"/>
<path transform="translate(716,1222)" d="m0 0 2 1-5 8h-2l-2 4-8 9-4-1 5-3 12-15z" fill="#7777B5"/>
<path transform="translate(890,1063)" d="m0 0 3 2-1 18h-2z" fill="#C1CEDF"/>
<path transform="translate(1125,799)" d="m0 0h2l-2 5-8 13h-2l1-4z" fill="#B6C1D8"/>
<path transform="translate(1057,672)" d="m0 0 2 1 3 7 6-1 2-3v2h2v3h-5v8l-3-6-5-3-2-4z" fill="#9CA5CE"/>
<path transform="translate(1026,658)" d="m0 0h3l-1 4-12 9-2-1z" fill="#C7D8E6"/>
<path transform="translate(1555,1183)" d="m0 0v3l-4 6h-5l-3-3 1-5 3 4 5-2z" fill="#C6E1F2"/>
<path transform="translate(1666,1182)" d="m0 0h10l-1 5-3 4h-2v-7z" fill="#7485C0"/>
<path transform="translate(1625,968)" d="m0 0m-2 1 3 1v3l-9 5-2-1 1-2-1-2z" fill="#C3CDDB"/>
<path transform="translate(1545,1241)" d="m0 0 2 1-1 4-4 1h-18l2-2 18-1z" fill="#697CBA"/>
<path transform="translate(1526,757)" d="m0 0 2 1-3 4 1 15h-2l-2-10v-9z" fill="#8A75B1"/>
<path transform="translate(993,686)" d="m0 0h3v8h-4l-3-4v-2z" fill="#FEFEFE"/>
<path transform="translate(1137,783)" d="m0 0 1 2-10 15-2-1 2-5 6-9z" fill="#C1CAD8"/>
<path transform="translate(1524,747)" d="m0 0 4 2v2l4 1-4 2-1 2h-4v-7z" fill="#C1C7D5"/>
<path transform="translate(1069,658)" d="m0 0h1l2 20h-2l-4-9v-2h2z" fill="#C2D3E5"/>
<path transform="translate(553,1293)" d="m0 0m-1 1m-3 1 9 1v1l-9 2-7 6-2-1 3-5z" fill="#7777B5"/>
<path transform="translate(570,1283)" d="m0 0 28 1v1l-28 1h-2v-2z" fill="#7877B5"/>
<path transform="translate(993,618)" d="m0 0v3l-5 7-5 3 1-4 6-8z" fill="#C9DEEC"/>
<path transform="translate(1098,403)" d="m0 0 7 1 14 7v2l-6-2-15-7z" fill="#8B86BE"/>
<path transform="translate(1445,1243)" d="m0 0h7l12 2-2 2h-9l-8-2z" fill="#6E7AB8"/>
<path transform="translate(1094,802)" d="m0 0 2 1v3h4l-1 6-1 2h-2l-2-5z" fill="#787FBA"/>
<path transform="translate(1522,746)" d="m0 0h2l-1 10h4l1-3 5-2v2l-7 5-5-1z" fill="#8C9ED0"/>
<path transform="translate(1161,459)" d="m0 0v3h-2l-2 5-2 3 2 1-4 2v-6l3-6z" fill="#8C7EB8"/>
<path transform="translate(621,1218)" d="m0 0m-2 1h2l-2 5-6 4-7 6 2-4 5-6z" fill="#6D7AB8"/>
<path transform="translate(1655,958)" d="m0 0h4l-2 11-1 3h-2l2-12-6 1 2-2z" fill="#8B9DD0"/>
<path transform="translate(1172,536)" d="m0 0h21v1l-11 1v1h-11z" fill="#8B9DD0"/>
<path transform="translate(925,1068)" d="m0 0 13 1 4 1v2h-7l-10-2z" fill="#B5C2D9"/>
<path transform="translate(1644,849)" d="m0 0h1v8l-2 9-2-1v-9z" fill="#FEFEFE"/>
<path transform="translate(631,798)" d="m0 0 4 1 16 1v1l-26 1-2-2z" fill="#595580"/>
<path transform="translate(1606,738)" d="m0 0h12v1l-12 2-16-1v-1z" fill="#C2CAD8"/>
<path transform="translate(1159,355)" d="m0 0 6 3 3 5-7-2-2-1v-2h-2v-2z" fill="#8F8CC0"/>
<path transform="translate(1515,1216)" d="m0 0h7l5 3v1h-9l-4-1z" fill="#6F7AB8"/>
<path transform="translate(1761,1056)" d="m0 0h9l9 2v1h-14z" fill="#CCE4F2"/>
<path transform="translate(1091,842)" d="m0 0 3 4 2-3 3 1-5 8h-3l-1-6z" fill="#C7D9E7"/>
<path transform="translate(644,646)" d="m0 0 2 2 2 9 3 2-7 1z" fill="#CAE0EE"/>
<path transform="translate(1030,624)" d="m0 0 2 3v10h-2l-2-5v-6z" fill="#524871"/>
<path transform="translate(1049,446)" d="m0 0 4 1 2 4-1 4h-3v-3h-2z" fill="#524871"/>
<path transform="translate(1521,862)" d="m0 0 2 1v3h5l-1 3-3 2h-3l-1-5z" fill="#94A4D0"/>
<path transform="translate(607,801)" d="m0 0h6l-4 3-2 11-2 1 1-13z" fill="#CCE4F2"/>
<path transform="translate(541,1301)" d="m0 0m-1 1 1 2-3 5-4 3-1-3 5-5z" fill="#7179B7"/>
<path transform="translate(729,1205)" d="m0 0v3l-3 3-3 1h-10l2-2 11-2z" fill="#6F7AB7"/>
<path transform="translate(1604,964)" d="m0 0h2l-2 5-6 12 2 1h-3v-5l3-5 2-5z" fill="#C5D1DF"/>
<path transform="translate(677,457)" d="m0 0 2 1v12h-7l2-2h3z" fill="#8983BC"/>
<path transform="translate(1207,1090)" d="m0 0h3v10l-3 1z" fill="#C4D0DE"/>
<path transform="translate(1529,950)" d="m0 0 5 5 4 5 1 3h-3l-7-11z" fill="#C1C7D5"/>
<path transform="translate(1642,838)" d="m0 0h1l-1 8h-4l-2-3 1-3v2l4-2z" fill="#8B9DD0"/>
<path transform="translate(1613,739)" d="m0 0h5l-3 3h-13l-3-2h10z" fill="#8B9DD0"/>
<path transform="translate(1011,656)" d="m0 0h2l-1 3 3 2-3 3-1-2-4 2 1-5z" fill="#65628D"/>
<path transform="translate(1194,596)" d="m0 0h1l2 10v5h-2l-2-8v-6z" fill="#CAE1EF"/>
<path transform="translate(976,1080)" d="m0 0h2l1 9 1 4-4-1z" fill="#B7BFD5"/>
<path transform="translate(1033,414)" d="m0 0h1l-1 8-1 3-4-2 2-1 1-6z" fill="#8B83BB"/>
<path transform="translate(1024,374)" d="m0 0 1 3-6 10-2-3 6-9z" fill="#8275AC"/>
<path transform="translate(679,1273)" d="m0 0v3l-7 9h-7v-1l8-2 2-5h2z" fill="#7678B5"/>
<path transform="translate(1206,688)" d="m0 0 2 1-4 4v-2h-17l-1-2h17z" fill="#A7A8CC"/>
<path transform="translate(682,521)" d="m0 0h2l-2 7-2 4-1 7-2 1 2-12z" fill="#B6C2D9"/>
<path transform="translate(1489,1296)" d="m0 0 2 1-1 4 4 7v2l-4-2-2-4v-7z" fill="#7B76B4"/>
<path transform="translate(1537,1232)" d="m0 0 4 2 4 5v5l-5 1 3-2-2-4-4-5z" fill="#7B76B4"/>
<path transform="translate(1213,1085)" d="m0 0h7v2l-13 2 1-3z" fill="#BFC9D9"/>
<path transform="translate(1271,1075)" d="m0 0h7v2l-12 2-1-3z" fill="#C3CDDB"/>
<path transform="translate(1283,959)" d="m0 0h2v2l-9 4h-3l1-3z" fill="#BCC6D8"/>
<path transform="translate(1608,928)" d="m0 0 4 5 2 2-2 1-1 9h-1z" fill="#CCE4F2"/>
<path transform="translate(1017,650)" d="m0 0v3 4h-2v3l-4-1 2-5z" fill="#564B76"/>
<path transform="translate(706,501)" d="m0 0 5 1-4 2-9 3 1-3z" fill="#A9B2D2"/>
<path transform="translate(1558,996)" d="m0 0 3 3 4 10-1 3-2-2-3-9z" fill="#FEFEFE"/>
<path transform="translate(1522,942)" d="m0 0 4 2 4 4-2 4-6-8z" fill="#8C9ED0"/>
<path transform="translate(1622,931)" d="m0 0 1 3-5 10h-2l3-9 1-2h2z" fill="#C4D0DE"/>
<path transform="translate(1204,662)" d="m0 0 4 2 3 7-1 7-1-4-2-6-3-4z" fill="#878EC4"/>
<path transform="translate(1014,644)" d="m0 0 3 1-6 8-2-1 1-4z" fill="#665F8E"/>
<path transform="translate(1166,449)" d="m0 0h1v6l-6 5-2-1 4-5z" fill="#9D5C9E"/>
<path transform="translate(1061,396)" d="m0 0h5l-2 2-12 3-3-1z" fill="#897FB9"/>
<path transform="translate(1264,848)" d="m0 0h5v2l-9 3-3-1 5-3z" fill="#C3CCDA"/>
<path transform="translate(1146,427)" d="m0 0 7 3h9v1l-11 2-5-4z" fill="#595580"/>
<path transform="translate(657,1301)" d="m0 0h2l-1 4-5 5-2 1 2-5z" fill="#7777B5"/>
<path transform="translate(1283,1073)" d="m0 0 3 1 4 2-12 1v-2l-2-1z" fill="#C6D5E3"/>
<path transform="translate(1638,851)" d="m0 0h5l-2 8-2-1v-2l-2-1z" fill="#CCE4F2"/>
<path transform="translate(1103,833)" d="m0 0 2 2-6 8-2-1z" fill="#C3CDDB"/>
<path transform="translate(1300,834)" d="m0 0h5v2l-7 3-3-1v-2z" fill="#C9DCEA"/>
<path transform="translate(1013,731)" d="m0 0 4 1-4 3-2 5-3-3 3-5z" fill="#726E9F"/>
<path transform="translate(710,587)" d="m0 0 15 3v1h-10l-3-1v-2z" fill="#A6B3D3"/>
<path transform="translate(1784,756)" d="m0 0 3 1v2l-4-1z" fill="#E7F2F8"/>
</svg>
