<?xml version="1.0" encoding="UTF-8"?>
<svg version="1.1" viewBox="0 0 2048 1439" width="596" height="419" xmlns="http://www.w3.org/2000/svg">
<path transform="translate(788,155)" d="m0 0 41 6h23l36-6 6 1 27 13 15 7 23 9 6 2-1 6-7 20-4 17-2 16-3 7h-5l-2-3-2 8h9l2 1h271l12-14 13-10 12-7 18-6 15-3h35l16 3 15 5 15 8 10 8 6 5 10 14 6 13 3 12 1 7v9l-3 17-7 16-12 18-11 11-1 4-1 115-4 4 4-1 1 5v18h-26v-3l14-14-2-2 1-12v-101l-25 15-19 8-21 6-12 2h-34l-11-2-10-4-2-2 17-1 14-4 9-5 4-7-1-9-6-8-21-14-10-9-8-8h-262l-1 12-7 18-8 12-12 14-13 11-11 7-17 8-13 4-12 2h-16l-24-3-15-4v98l5 5 13 12 8 8 10 13 9 15 7 14 7 22 3 19v31l-3 25-2 4-3-3-7-14-7-7-8-5-15-6-17-2v517l3 12 7 12 9 10 14 9 10 4 14 2h187l14-1-19-32-6-11-28-2-3-2 1-1 27-1-8-20-4-11-5-13h-128l-19-1v-4h145l-6-15-11-18-12-15-12-16-12-19-7-12-2-6v-6l3-5 9-4 20-3 2-26 4-5 5-2 68-1h26l56 1 9 2 5 4 2 7v19l-2 8-5 6-3 1-14 1h-112v2l5 2 13 9 10 8 11-1h51l6 2-1 4-4 1h-28l-29-1-3-1v2l3 1 7 9 2 1h78l7 2-2 3-5 1-74-1 5 8 20 26 14 20 5 6 3 1h8l2 3-7 2 3 5 9 11 1 1 39 1 3 3-1 2-6 1h-27l4 6 7 7 15 10 10 6 4-2 7-9 9-19 6-16 2-8-2 1-20 1h-33l-3-1 1-6h38l21 1 4-16 3-17 1-11v-60l-3-23-7-30-10-30-4-7h-2l-1 2-3 1-291 1-8-1-6-6-2-8v-7l3-7 4-3 8-1h276l9-1-6-11-10-13-9-10-7-8-2-1h-258l-5-3-4-8v-10l3-6 7-4 10-1h227l-6-14-4-14v-12l4-6 5-3 10-1 11 1 14 7 13 10 19 13 14 12 7 7 1 2 11-2h34l9 2 4 5 1 3v12l-3 6-4 3-16 2-14 1 12 21 6 10 6 9 10 9 3 8 2 10 6 11 9 12 9 10 8 8 13 10 23 11 13 7 1-2-6-1-1-1v-146l-1-106-1-3-4 1-2 9-2 1h-9l-9-2-7-8-13-1-7-3-1-1-1-9-1-37 1-90 10-7 9-7 13-12 7-6 2 2 1 47 13 9 24 16 9 5h14l-1 2-10 1 5 4 6 3 5-1 4-2 6 1 10 1 8-4 2-2-24-1v-2l29-1 12-8 2-2h-20l-1-3 27-1 11-6 10-7 2-49 1-5 1-42 1-7h16l1 1-1 60-1-2-6-2 7 7 7 8 8 7 7 7 7 8 10 10v129l-3 3h-87l-50-1-15-1-5-3v-2l-6-2-7-3-1 118v122l3-1 8-12 12-14 9-10 16-16 8-7 15-12 24-16 15-9 21-11 32-13 18-6 27-6 19-3 10-1h28l18 3 11 3 21 10 10 8 5 7-1 4 6 6v10l-3 10-6 9-12 10-16 10-25 12-25 10-31 11-50 16-28 10-21 9-16 8-21 12-1 3 38-8 21-3 10-1h51l30 4 23 5 26 8 19 8 20 11 14 10 14 14 9 14 5 13v19l-5 8-7 6-9 4-15 3h-43l-31-4-36-6-23-4-4-1 3 23 31 6 28 4 28 3 19 1h17l16-2 16-5 16-8 11-9h2l-2 5-11 9-14 7-21 6-13 2h-30l-35-4-35-5-21-4-2-1 1 10v25l-2 27-4 34-1 12v84l3 36 5 38 5 30v6h-311l-8-16-7-10-11-12-8-6-18-11-16-12-10-8-16-16-9-11-8-9-11-15-13-20-10-15-17-28-11-18-4-1-7 2-3 10-11 18-9 11-13 13h-2l-1 3-15 11-16 11-14 8-19 10-21 10-36 13-10 5-12 12-1 2h-2l-2 4-7 7h-2l-2 4-44 44-8 10h-524l5-5 25-16 39-26 17-11 54-36 37-25 23-16 17-12 36-26 19-13 7-6 19-14 18-14 16-13 11-9 11-10 8-7 15-15 1-2h2l2-4 7-11 4-18 6-32-37 1-36 4-36 6-48 9-35 5-11 1h-44l-15-4-8-4-7-8-3-7v-16l5-13 6-10 8-10 9-9 14-10 19-11 20-8 22-7 18-4 30-5 9-1h48l27 3 31 6 17 5h6l-17-10-24-13-17-7-21-8-47-16-37-12-34-13-29-14-15-9-9-7-8-8-6-12v-12l8-15 8-8 13-8 12-5 15-4 18-2h24l23 3 25 5 23 7 19 7 18 8 25 13 14 9 16 11 13 10 9 7 2 1 3-9 15-35 19-46 9-19 11-23 7-13 5-6 2-14v-98l-28 5-41 9-30 7-29 5-9 1h-26l-18-3-15-5-12-7-10-9-8-9-8-15-5-16-2-13 1-18 5-17 8-17 7-10 9-10 5-5 11-10 15-9 15-7 18-6 19-4 9-1h42l21 3 21 6 20 8 16 8-1-7v-87l-19-10-11-8-10-9-9-10-9-14-5-10-5-14-3-12-1-16 4-10 5-14 4-16 2-15v-20l-4-23-10-30 17-6 16-7 23-13zm98 19-33 4h-26l-29-3h-7l-15 9-21 10 4 17 3 16 1 13v11l-2 20-5 21-7 18v11l4 17 6 14 8 12 9 10 9 8 13 8 11 5 15 4 7 1h18l17-3 16-6 14-9 10-9 7-7 9-14 6-13 4-18v-11l-8-21-5-21-1-8v-27l3-20 4-15v-5l-16-7-22-12zm457 87-10 13-12 17-10 14-3 4v2l-11-9-14-13-5 1-7 8-6 8 2 4 15 10 17 11 9 6 4-2 10-10 7-8 12-13 7-7 7-8 10-11-1-4-9-7-8-6zm-734 278-6 3-3 6v15l4 11 8 17 2 8v10l-3 8-4 4h-9l1 3 2 1h7l6-4 5-10v-14l-6-16-6-13-2-7v-14l2-3 7-2-1-3zm175 2v74l-1 4-6 1-4-4-3-10-2-18-2-45h-5v17l2 36 2 16 3 7 5 5 6 2 7-4 3-7v-73zm-155 10-1 3 8 1-1 62-1 5 5 1 9-2v-3h-7l-1-62 5-1 1-2-9-2zm40 0-6 3-3 5-2 8-1 9v26l3 15 5 6 3 1h7l6-4 2-5v-22l-4-3h-7l-1 3 7 2v16l-2 7-5 2-5-5-2-8-1-9v-24l2-12 2-5 8-3v-3zm28 1-1 5v65l4 1 1-61 8 22 11 34 2 5 5-1 2-16 1-18v-35h-4l-1 19v41l-2-1-7-23-11-28-4-9zm109 0-1 1-1 31v33l1 7h5l-1-35 6-2 5-5 1-4v-16l-3-7-4-3zm134 274-2 1v7h8v-7zm51 0-1 1v6l4 1 1-1v-6zm-75 1-1 6 1 1h6v-6l-1-1zm10 0v7h7v-7zm27 0-1 5 1 2 4-1 1-6zm11 0v7l5-1-1-6zm12 0v5l5 2 2-3-1-4zm25 0v6l4 1 2-3-1-4zm-493 42 1 2 42 9 28 8 24 9 19 8 27 13 16 9 17 12 11 8 15 11 5 2-5-5-10-9-16-12-31-19-19-10-26-11-23-8-23-7-25-6-23-4zm1133 0-32 6-30 8-24 8-29 12-25 13-15 9-14 9-17 13-11 9-13 12-9 9-7 8-5 5 1 2 28-28 8-7 15-12 17-12 21-13 17-9 32-14 23-8 24-7 37-9 13-2v-2zm-726 32-1 1v8l4 3 6-1 2-2v-8l-2-1zm29 0-1 1v8l5 2 7-1 1-1v-7l-2-2zm31 0-1 1v9l1 1h10l2-3v-8zm31 0-2 2v8l1 1h9l2-1v-9l-3-1zm28 1-1 5 3 5h8l2-2 1-5-2-3zm-489 149-31 7-29 9-18 7 3 1 29-9 32-8 31-6v-1z" fill="#FAC4C1"/>
<path transform="translate(788,155)" d="m0 0 41 6h23l36-6 6 1 27 13 15 7 23 9 6 2-1 6-7 20-4 17-2 16-3 7h-5l-2-3-2 8h9l2 1h271l12-14 13-10 12-7 18-6 15-3h35l16 3 15 5 15 8 10 8 6 5 10 14 6 13 3 12 1 7v9l-3 17-7 16-12 18-11 11-1 4-1 115-4 4 4-1 1 5v18h-26v-3l14-14-2-2 1-12v-101l-25 15-19 8-21 6-12 2h-34l-11-2-10-4-2-2 17-1 14-4 9-5 4-7-1-9-6-8-21-14-10-9-8-8h-262l-1 12-7 18-8 12-12 14-13 11-11 7-17 8-13 4-12 2h-16l-24-3-15-4v98l5 5 13 12 8 8 10 13 9 15 7 14 7 22 3 19v31l-3 25-2 4-3-3-7-14-7-7-8-5-15-6-17-2v517l3 12 7 12 9 10 14 9 10 4 14 2 203 1 7 10 2 4-1 4-7 2-3 10-11 18-9 11-13 13h-2l-1 3-15 11-16 11-14 8-19 10-21 10-36 13-10 5-12 12-1 2h-2l-2 4-7 7h-2l-2 4-44 44-8 10h-524l5-5 25-16 39-26 17-11 54-36 37-25 23-16 17-12 36-26 19-13 7-6 19-14 18-14 16-13 11-9 11-10 8-7 15-15 1-2h2l2-4 7-11 4-18 6-32-37 1-36 4-36 6-48 9-35 5-11 1h-44l-15-4-8-4-7-8-3-7v-16l5-13 6-10 8-10 9-9 14-10 19-11 20-8 22-7 18-4 30-5 9-1h48l27 3 31 6 17 5h6l-17-10-24-13-17-7-21-8-47-16-37-12-34-13-29-14-15-9-9-7-8-8-6-12v-12l8-15 8-8 13-8 12-5 15-4 18-2h24l23 3 25 5 23 7 19 7 18 8 25 13 14 9 16 11 13 10 9 7 2 1 3-9 15-35 19-46 9-19 11-23 7-13 5-6 2-14v-98l-28 5-41 9-30 7-29 5-9 1h-26l-18-3-15-5-12-7-10-9-8-9-8-15-5-16-2-13 1-18 5-17 8-17 7-10 9-10 5-5 11-10 15-9 15-7 18-6 19-4 9-1h42l21 3 21 6 20 8 16 8-1-7v-87l-19-10-11-8-10-9-9-10-9-14-5-10-5-14-3-12-1-16 4-10 5-14 4-16 2-15v-20l-4-23-10-30 17-6 16-7 23-13zm98 19-33 4h-26l-29-3h-7l-15 9-21 10 4 17 3 16 1 13v11l-2 20-5 21-7 18v11l4 17 6 14 8 12 9 10 9 8 13 8 11 5 15 4 7 1h18l17-3 16-6 14-9 10-9 7-7 9-14 6-13 4-18v-11l-8-21-5-21-1-8v-27l3-20 4-15v-5l-16-7-22-12zm457 87-10 13-12 17-10 14-3 4v2l-11-9-14-13-5 1-7 8-6 8 2 4 15 10 17 11 9 6 4-2 10-10 7-8 12-13 7-7 7-8 10-11-1-4-9-7-8-6zm-734 278-6 3-3 6v15l4 11 8 17 2 8v10l-3 8-4 4h-9l1 3 2 1h7l6-4 5-10v-14l-6-16-6-13-2-7v-14l2-3 7-2-1-3zm175 2v74l-1 4-6 1-4-4-3-10-2-18-2-45h-5v17l2 36 2 16 3 7 5 5 6 2 7-4 3-7v-73zm-155 10-1 3 8 1-1 62-1 5 5 1 9-2v-3h-7l-1-62 5-1 1-2-9-2zm40 0-6 3-3 5-2 8-1 9v26l3 15 5 6 3 1h7l6-4 2-5v-22l-4-3h-7l-1 3 7 2v16l-2 7-5 2-5-5-2-8-1-9v-24l2-12 2-5 8-3v-3zm28 1-1 5v65l4 1 1-61 8 22 11 34 2 5 5-1 2-16 1-18v-35h-4l-1 19v41l-2-1-7-23-11-28-4-9zm109 0-1 1-1 31v33l1 7h5l-1-35 6-2 5-5 1-4v-16l-3-7-4-3zm-298 317 1 2 42 9 28 8 24 9 19 8 27 13 16 9 17 12 11 8 15 11 5 2-5-5-10-9-16-12-31-19-19-10-26-11-23-8-23-7-25-6-23-4zm37 182-31 7-29 9-18 7 3 1 29-9 32-8 31-6v-1z" fill="#FAC4C1"/>
<path transform="translate(788,155)" d="m0 0 41 6h23l36-6 6 1 27 13 15 7 23 9 6 2-1 6-7 20-4 17-2 16-3 7h-5l-2-3-2 8h9l2 1h271l12-14 13-10 12-7 18-6 15-3h35l16 3 15 5 15 8 10 8 6 5 10 14 6 13 3 12 1 7v9l-3 17-7 16-12 18-11 11-1 4-1 115-4 4 4-1 1 5v18h-26v-3l14-14-2-2 1-12v-101l-25 15-19 8-21 6-12 2h-34l-11-2-10-4-2-2 17-1 14-4 9-5 4-7-1-9-6-8-21-14-10-9-8-8h-262l-1 12-7 18-8 12-12 14-13 11-11 7-17 8-13 4-12 2h-16l-24-3-15-4v98l5 5 13 12 8 8 10 13 9 15 7 14 7 22 3 19v31l-3 25-2 4-3-3-7-14-7-7-8-5-15-6-17-2v517l3 12 7 12 9 10 14 9 10 4 14 2 203 1 7 10 2 4-1 4-10 2h-143v-1h-82l-12-4-10-6-10-9-8-11-4-10-2-9-1-364v-65l1-10v-98l-28 5-41 9-30 7-29 5-9 1h-26l-18-3-15-5-12-7-10-9-8-9-8-15-5-16-2-13 1-18 5-17 8-17 7-10 9-10 5-5 11-10 15-9 15-7 18-6 19-4 9-1h42l21 3 21 6 20 8 16 8-1-7v-87l-19-10-11-8-10-9-9-10-9-14-5-10-5-14-3-12-1-16 4-10 5-14 4-16 2-15v-20l-4-23-10-30 17-6 16-7 23-13zm98 19-33 4h-26l-29-3h-7l-15 9-21 10 4 17 3 16 1 13v11l-2 20-5 21-7 18v11l4 17 6 14 8 12 9 10 9 8 13 8 11 5 15 4 7 1h18l17-3 16-6 14-9 10-9 7-7 9-14 6-13 4-18v-11l-8-21-5-21-1-8v-27l3-20 4-15v-5l-16-7-22-12zm457 87-10 13-12 17-10 14-3 4v2l-11-9-14-13-5 1-7 8-6 8 2 4 15 10 17 11 9 6 4-2 10-10 7-8 12-13 7-7 7-8 10-11-1-4-9-7-8-6zm-734 278-6 3-3 6v15l4 11 8 17 2 8v10l-3 8-4 4h-9l1 3 2 1h7l6-4 5-10v-14l-6-16-6-13-2-7v-14l2-3 7-2-1-3zm175 2v74l-1 4-6 1-4-4-3-10-2-18-2-45h-5v17l2 36 2 16 3 7 5 5 6 2 7-4 3-7v-73zm-155 10-1 3 8 1-1 62-1 5 5 1 9-2v-3h-7l-1-62 5-1 1-2-9-2zm40 0-6 3-3 5-2 8-1 9v26l3 15 5 6 3 1h7l6-4 2-5v-22l-4-3h-7l-1 3 7 2v16l-2 7-5 2-5-5-2-8-1-9v-24l2-12 2-5 8-3v-3zm28 1-1 5v65l4 1 1-61 8 22 11 34 2 5 5-1 2-16 1-18v-35h-4l-1 19v41l-2-1-7-23-11-28-4-9zm109 0-1 1-1 31v33l1 7h5l-1-35 6-2 5-5 1-4v-16l-3-7-4-3z" fill="#D85062"/>
<path transform="translate(519,828)" d="m0 0h24l23 3 25 5 23 7 19 7 18 8 25 13 14 9 16 11 13 10 9 7 6-1 4-3h2v-2h2l1-2 2 5-1 3v8l-1 3-1 39-3 14-5 30-2 5-3 17-2 12-1 1-1 11-1 3-5 38-1 26v11l1 16 5 27 4 11 8 16 2 6 4 2v2l4 2 7 7 10 8 5 3 4 3v2l5 2v2l4 2 11 10 3 2 3 6 9 14 2 5h2l4 6v2l4 2 5 5 5 3 7 4 10 6 12 5 12 6 6 4 4 2 4 4 3 1 7 8 8 10 2 10-3 4-6-1-6-7-8-5-5-5-20-10-14-6-16-6-5-2-11-3-9-4-4-3v-2l-4-1-7-6v-2l-3-1v-3h-2v-3l-4-2-7-11-8-13-3-4v-2l-4-2-2-4-20-10-14-3h-11l-17 3-12 4-10 6-6 2v2l-10 6-12 10h-2v2l-5 3h-2v2l-22 18h-2l-1 3-6 4-5 5h-2l-1 3-8 7-9 8h-3l-2 4-4 3h-2l-1 3-8 7h-2v2l-7 5-5 5-9 7-7 7-7 5h-2l-2 4-11 9-5 4-5 5h-2v2l-8 6-11 9-3 3h-2v3l-11 9-4 5h-2v2h-2l-2 4-1 3h-145l5-5 25-16 39-26 17-11 54-36 37-25 23-16 17-12 36-26 19-13 7-6 19-14 18-14 16-13 11-9 11-10 8-7 15-15 1-2h2l2-4 7-11 4-18 6-32-37 1-36 4-36 6-48 9-35 5-11 1h-44l-15-4-8-4-7-8-3-7v-16l5-13 6-10 8-10 9-9 14-10 19-11 20-8 22-7 18-4 30-5 9-1h48l27 3 31 6 17 5h6l-17-10-24-13-17-7-21-8-47-16-37-12-34-13-29-14-15-9-9-7-8-8-6-12v-12l8-15 8-8 13-8 12-5 15-4zm-11 41 1 2 42 9 28 8 24 9 19 8 27 13 16 9 17 12 11 8 15 11 5 2-5-5-10-9-16-12-31-19-19-10-26-11-23-8-23-7-25-6-23-4zm37 182-31 7-29 9-18 7 3 1 29-9 32-8 31-6v-1z" fill="#F2B7B1"/>
<path transform="translate(1492,501)" d="m0 0h16l1 1-1 60-1-2-6-2 7 7 7 8 8 7 7 7 7 8 10 10v129l-3 3h-87l-50-1-15-1-5-3v-2l-6-2-7-3-1 118v122l3-1 8-12 12-14 9-10 16-16 8-7 15-12 24-16 15-9 21-11 32-13 18-6 27-6 19-3 10-1h28l18 3 11 3 21 10 10 8 5 7-1 4 6 6v10l-3 10-6 9-12 10-16 10-25 12-25 10-31 11-50 16-28 10-21 9-16 8-21 12-3 1h-7l-27-8-6-4 2-6 26-26 8-7 15-12 17-12 21-13 17-9 32-14 23-8 24-7 37-9 13-1v-2l-37 7-30 8-24 8-29 12-25 13-15 9-14 9-17 13-11 9-13 12-8 8-7 8-5 5-6 3-8-2-20-7-3-1-12-2-1-1v-146l-1-106-1-3-4 1-2 9-2 1h-9l-9-2-7-8-13-1-7-3-1-1-1-9-1-37 1-90 10-7 9-7 13-12 7-6 2 2 1 47 13 9 24 16 9 5h14l-1 2-10 1 5 4 6 3 5-1 4-2 6 1 10 1 8-4 2-2-24-1v-2l29-1 12-8 2-2h-20l-1-3 27-1 11-6 10-7 2-49 1-5 1-42z" fill="#FB9E78"/>
<path transform="translate(1077,464)" d="m0 0h18l16 2 20 6 16 8 11 7 13 11 8 8 8 11 10 18 7 21 3 18v18l-3 18-5 16-6 14-12 18-11 12-12 10-20 12-14 5-14 4-8 1h-35l-24-7-16-8-14-10-12-11-9-10-7-10-8-16-5-13-3-13-1-8v-27l3-16 7-19 8-15 11-14 14-14 13-9 16-9 15-5 12-3zm1 39-12 3-9 6-6 5-7 10-4 10-1 4v17l5 14 6 9 11 9 12 5 4 1h18l13-5 10-7 8-9 5-11 1-5v-19l-3-10-6-10-8-8-16-8-5-1zm43 90-11 6-8 4-7 2h-19l-12-5-11-6-5 1-6 4-5 6-6 12-1 4v16l6 9 2 1 13 1h80l9-3 4-5 1-4v-13l-4-12-6-9-9-8z" fill="#84BAFC"/>
<path transform="translate(1492,501)" d="m0 0h16l1 1-1 60-1-2-6-2 7 7 7 8 8 7 7 7 7 8 10 10v129l-3 3h-87l-50-1-15-1-5-3v-2l-6-2-7-3-1 118h-1v-118h-8l-3-1-1 4-1-3-4 1-2 9-2 1h-9l-9-2-7-8-13-1-7-3-1-1-1-9-1-37 1-90 10-7 9-7 13-12 7-6 2 2 1 47 13 9 24 16 9 5h14l-1 2-10 1 5 4 6 3 5-1 4-2 6 1 10 1 8-4 2-2-24-1v-2l29-1 12-8 2-2h-20l-1-3 27-1 11-6 10-7 2-49 1-5 1-42z" fill="#FBBF5C"/>
<path transform="translate(519,828)" d="m0 0h24l23 3 25 5 23 7 19 7 18 8 25 13 14 9 16 11 13 10 4 3 2 6h2l-3 15-4 11-3 16-3 5-7-2-14-12-16-11-19-12-26-14-26-11-23-8-23-7-25-6-23-4h-3l42 9 28 8 24 9 19 8 27 13 16 9 17 12 11 8 12 9 9 9v9l-3 27-3 8-5-1-28-15-16-8-26-10-50-17-37-12-34-13-29-14-15-9-9-7-8-8-6-12v-12l8-15 8-8 13-8 12-5 15-4z" fill="#FB9E78"/>
<path transform="translate(580,997)" d="m0 0h48l27 3 31 6 14 4 2 2 6 1v9l-2 20-1 22-4 25-2 9-36 1-36 4-36 6-48 9-35 5-11 1h-44l-15-4-8-4-7-8-3-7v-16l5-13 6-10 8-10 9-9 14-10 19-11 20-8 22-7 18-4 30-5zm-35 54-31 7-29 9-18 7 3 1 29-9 32-8 31-6v-1z" fill="#2665AA"/>
<path transform="translate(1291,219)" d="m0 0h35l16 3 15 5 15 8 10 8 6 5 10 14 6 13 3 12 1 7v9l-3 17-7 16-12 18-11 11-1 4-1 115-4 4 4-1 1 5v18h-26v-3l14-14-2-2 1-12v-101l-25 15-19 8-21 6-12 2h-34l-11-2-10-4-2-2 17-1 14-4 9-5 4-7-1-9-6-8-21-14-10-9-8-8-5-1-1-5-5-8-5-14-1-10 3-17 6-17 2-3h-269v-1l271-1 12-14 13-10 12-7 18-6zm52 42-10 13-12 17-10 14-3 4v2l-11-9-14-13-5 1-7 8-6 8 2 4 15 10 17 11 9 6 4-2 10-10 7-8 12-13 7-7 7-8 10-11-1-4-9-7-8-6z" fill="#59A0F9"/>
<path transform="translate(1522,997)" d="m0 0h51l30 4 23 5 26 8 19 8 20 11 14 10 14 14 9 14 5 13v19l-5 8-7 6-9 4-15 3h-43l-31-4-36-6-23-4-3-1-4-11-5-13-6-12-10-13-7-8-6-5-5-5-18-12-14-8-18-8-9-3v-3l22-5 22-4z" fill="#4F8ACD"/>
<path transform="translate(945,260)" d="m0 0 274 1-3 9-4 11-3 17 2 14 6 14 4 6-1 3h-256l-13-1-1-4 1-4v-21l-8-20-4-14-1-10z" fill="#32334E"/>
<path transform="translate(788,155)" d="m0 0 41 6h23l36-6 6 1 27 13 15 7 23 9 6 2-1 6-7 20-4 17-2 16-3 7h-5l-2-3-2 8h9l2 2-5 1h-7l5 21 6 16 3 7v21l-1 7 13 1 2 2h-3l-1 12-7 18-8 12-12 14-13 11-11 7-17 8-13 4-12 2h-16l-24-3-15-4-1 9h-1v-9l-9-3-1 2-2-4-16-8-11-7-13-12-8-9-9-14-5-10-5-14-3-12-1-16 4-10 5-14 4-16 2-15v-20l-4-23-10-30 17-6 16-7 23-13zm98 19-33 4h-26l-29-3h-7l-15 9-21 10 4 17 3 16 1 13v11l-2 20-5 21-7 18v11l4 17 6 14 8 12 9 10 9 8 13 8 11 5 15 4 7 1h18l17-3 16-6 14-9 10-9 7-7 9-14 6-13 4-18v-11l-8-21-5-21-1-8v-27l3-20 4-15v-5l-16-7-22-12z" fill="#537FC4"/>
<path transform="translate(1700,868)" d="m0 0 4 2v12l-3 6-5 6h-2l-2 5-8 7-11 6h-2v2l-10 5-7 4-11 5-6 3-5 1-6 4-16 5-7 3-8 3-9 3-5 2v2l-47 15-32 12-22 10-7 4-9 3-10 5-4 1h-7l-13-5-8-4-1-8 8-9h2l2-4 5-5 11-10 9-7 6-4 4-4 21-14 14-7 4-3h3v-2l8-2 1-2 17-8 10-4 12-5 13-4 19-6 17-5 21-5 9-2 39-5 10-1z" fill="#F28B62"/>
<path transform="translate(459,868)" d="m0 0h10l20 2 21 4 23 4 36 9 12 4 29 10 9 4 20 9 15 8 8 2 20 14 11 8 12 9 9 9v9l-3 27-3 8-5-1-28-15-16-8-26-10-44-15-3-3-19-6-12-5-7-3-15-6-14-5-9-6-8-4-4-1v-2l-6-2-14-8-3-1v-2l-5-1v-2l-5-1-6-5-5-7-1-6v-7l2-6z" fill="#F28B62"/>
<path transform="translate(580,997)" d="m0 0h48l27 3 31 6 14 4 2 2 6 1v9l-2 20-1 22-1-3-8-1-25-5-21-3-11-1h-49l-21 2-30 5-21 5h-7l4-2 26-6 16-3h-12l-31 7-29 9-15 6 29-9 8-1-2 2-18 5-10 4-12 3-35 14-9 3-1-10 5-13 6-10 8-10 9-9 14-10 19-11 20-8 22-7 18-4 30-5z" fill="#508BCE"/>
<path transform="translate(802,647)" d="m0 0h11l1 516 3 12 7 12 9 10 14 9 10 4 14 2 203 1 7 10 2 4-1 4-10 2h-143v-1h-82l-12-4-10-6-10-9-8-11-4-10-2-9-1-364v-65l1-10z" fill="#363C5C"/>
<path transform="translate(1527,1048)" d="m0 0h29l30 3 29 5 30 7 6 2v2l14 2 26 9v2l10 2 8 3v2l9 2 3 1v2l7 1 5 2v8l-5 8-7 6-9 4-15 3h-43l-31-4-36-6-23-4-3-1-4-11-5-13-6-12-10-13-9-11z" fill="#2765AB"/>
<path transform="translate(1047,1149)" d="m0 0h5v2h2v2l4 2v2l4 2 6 10 7 11 6 10 11 16 6 11 7 11 4 8 5 7v2l2 1 7 11 10 16v3h2l7 8 4 5v2h2l4 6 5 4 5 5 1 3 8 7 5 5 3 1v2l4 2 14 10 17 10 21 10 13 7 11 8 7 7 5 6 12 19 7 14 8 15 2 7h-41l-8-16-7-10-11-12-8-6-18-11-16-12-10-8-16-16-9-11-8-9-11-15-13-20-10-15-17-28-11-18-3-2-6-12-3-4-16-1v-1h15l-2-6-1-5h-2l-1-4-3-7-3-8v-3h-2l-3-7-6-9-2-6-2-5z" fill="#F2B7B1"/>
<path transform="translate(906,890)" d="m0 0h286l5 9 5 12 2 7-3 3-3 1-291 1-8-1-6-6-2-8v-7l3-7 4-3zm9 11-1 1v8l4 3 6-1 2-2v-8l-2-1zm29 0-1 1v8l5 2 7-1 1-1v-7l-2-2zm31 0-1 1v9l1 1h10l2-3v-8zm31 0-2 2v8l1 1h9l2-1v-9l-3-1zm28 1-1 5 3 5h8l2-2 1-5-2-3z" fill="#BDD9F8"/>
<path transform="translate(1074,960)" d="m0 0h26l56 1 9 2 5 4 2 7v19l-2 8-5 6-3 1-14 1h-112v-2l-5-1-20-7-16-4 2-27 4-5 5-2z" fill="#86BBFC"/>
<path transform="translate(910,814)" d="m0 0h226l6 9 14 22-16 1h-241l-5-3-4-8v-10l3-6 7-4zm30 12-2 1v7h8v-7zm51 0-1 1v6l4 1 1-1v-6zm-75 1-1 6 1 1h6v-6l-1-1zm10 0v7h7v-7zm27 0-1 5 1 2 4-1 1-6zm11 0v7l5-1-1-6zm12 0v5l5 2 2-3-1-4zm25 0v6l4 1 2-3-1-4z" fill="#BDD9F9"/>
<path transform="translate(788,155)" d="m0 0 41 6h23l36-6 6 1 27 13 15 7 23 9 6 2-1 6-7 20-4 17-2 16-3 7h-5l-2-3-2 8 3 1-7-1-1-26 3-24 2-2 4-13v-5l-3 2-7-5-7-4-3-2h-3v-2l-7-1-4-3-3-1v-2l-6-2-2-2-5-2h-30l-4 1-13 2-6 2-5 1-12 1-4-3-5-1-4-2v-2l-11 1h-7l-7 3-8 5-3 1-1 2-8 3-1 1-7-1-1 3-5 2 1 3 5 5v3h-2l4 13 4 20 1 13v11l-2 20-5 21-7 18v11l4 17 6 14 8 12 9 10 8 7 13 8-1 5 4 4 5 2v2l3 1-9 3v2l2 1 2 3-3 1-19-10-11-8-10-9-9-10-9-14-5-10-5-14-3-12-1-16 4-10 5-14 4-16 2-15v-20l-4-23-10-30 17-6 16-7 23-13z" fill="#6996DE"/>
<path transform="translate(791,282)" d="m0 0h102l3 2v24l-3 13-7 11-8 9-11 7-13 5-6 1h-19l-9-2-16-8-10-9-4-5-7-14-1-5v-25l2-3zm46 12-9 3-7 8-2 6 1 9 4 6 5 5 5 2h10l8-5 4-5 1-3v-12l-3-6-8-7z" fill="#6895DE"/>
<path transform="translate(829,1225)" d="m0 0 18 6h83l2 1h143l-2 7-8 12-8 2-7-2h-12l-15-1-6 1-16 1-43 6-29 3h-27l-14-1-9-3-4-2-12-3-10-6-3-2v-2h-2l-1-4h-2l-5-5-11-7z" fill="#F2B5AF"/>
<path transform="translate(1530,589)" d="m0 0 7 6 10 10v129l-3 3h-87l-50-1-15-1-5-3v-2l-6-2-7-3-1 118h-1v-119l132-1 15-1 7-3 2-5 1-31z" fill="#DDDADD"/>
<path transform="translate(1179,857)" d="m0 0 5 1 4 2 3 5 7 9 1 7h2l1 3 3 3 5 6 5 8 5 14 3 14 1 10 4 13 3 6 2 6v5l2 1 2 5 1 9 3 8 8 26 3 12 2 10 1 11v19l-4 18-1 3h-2l-1 8-4 8-4 15-4 10-6 11-1 2h-2l-2 4-9 11-6 1-1-4 2-8h2l1-8 3-5 5-15h2l1-9 2-4 2-11v-12l2-15 1-4-1-19v-50l-2-7-2-10-1-14-2-6-2-9-2-6-1-4-3-3 1-2-2-1-3-6-2-11-3-7-2-7-3-12-5-7-2-1-2-6-4-2-5-10-4-6z" fill="#F3B7B1"/>
<path transform="translate(1361,724)" d="m0 0 11 1 1 179 1 79-12-2-1-1v-146l-1-105z" fill="#383C59"/>
<path transform="translate(699,1104)" d="m0 0 2 1-1 6v11l-2 7-1 10-1 8h-2l-1 6-3 5-4 7-3 1v3h-3l-1 4h-2l-2 4-12 12-3 1-1 3-3 2-4 2v2l-9 6h-2v2l-3 1-1 2-6 2-1 3h-2v2l-5 5h-2v2l-4 2-1 2-5 1-1 3-4 3h-3l-1 3-7 5h-2v2l-7 4h-2l-1 3-10 5-3 1v2l-11 8-4 2-1 2-2-1-1 3-5 2-2 4-12 7-1 2-3 1-5 5-7 2v2l-9 7-15 11-8 4h-3v2h-2l-1 3h-2v2l-7 3-4 4-15 10h-2l-2 4-5 3h-2l-1 3-9 5-14 10-6 3h-2v2l-6 2v2l-14 9-9 6-1 2-7 4-3 1v2l-9 5h-2v2l-10 5-7 5h-3v2l-14 8-5 1-2 4-5 3-9 1 5-5 25-16 39-26 17-11 54-36 37-25 23-16 17-12 36-26 19-13 7-6 19-14 18-14 16-13 11-9 11-10 8-7 15-15 1-2h2l2-4 7-11 4-18z" fill="#F9C5C2"/>
<path transform="translate(1701,859)" d="m0 0h2l-1 4 6 6v10l-3 10-6 9-12 10-16 10-25 12-25 10-31 11-9 2 5-4 16-5 5-3 11-4 9-3 8-4 5-2 13-5 6-4 5-3h3l1-2h3v-2l14-8 7-6v-2h2v-2l5-5 3-4 1-3v-12l-3-1-17 1-15 2-31 4-9 2-21 5-17 5-13 4-27 9-10 5-10 4-18 9-2-1v2l-6 3-11 6-18 11-5 4-5 2-1 3-8 6-10 8-7 6-4 5-8 7-5 6v8l7 2 9 4 5 2h7l13-5 5-3 3 1-17 10-3 1h-7l-27-8-6-4 2-6 26-26 8-7 15-12 17-12 21-13 17-9 32-14 23-8 24-7 37-9 13-1v-2l-4-1 52-8z" fill="#FBA17E"/>
<path transform="translate(820,226)" d="m0 0h37l8 3 7 8 2 8v27l16 3 2 5h-106l2-4 4-2 11-1v-29l3-8 4-5zm5 10-9 2-3 4-1 29 1 2 5 1h44l2-1v-29l-4-6-4-2z" fill="#709CE2"/>
<path transform="translate(950,335)" d="m0 0 13 1-1 12-7 18-8 12-12 14-13 11-11 7-17 8-13 4-12 2h-16l-24-3-8-2v-1h34l17-4 16-6 11-6 13-10 11-10 10-13 10-19 5-13z" fill="#BCD7F7"/>
<path transform="translate(1351,977)" d="m0 0 4 1 12 6 1-2h8l7 3 20 7 7-2h3l-1 5 8 4 24 7h9v3h6v2l9 2 4 6 12 5 3 4-1 1h-8l-10-3-11-5-6-2-19-3h-11l-13-1-19-7-9-5-7-4-4-2v-2l-4-1-10-7-5-5z" fill="#F2B7B1"/>
<path transform="translate(1492,501)" d="m0 0h16l1 1-1 60-1-2-6-2 7 7-2 1-11-7-5-1v46l-7 6-20 13-10 8-8 6-6 5-9 4-10-2h-6l-2 1h-7l-11-6-11-8-6-3-4-4-7-5-6-3-8-6-8-7-1-45-6 1 4-5 3-1 1 2 1 47 13 9 24 16 9 5h14l-1 2-10 1 5 4 6 3 5-1 4-2 6 1 10 1 8-4 2-2-24-1v-2l29-1 12-8 2-2h-20l-1-3 27-1 11-6 10-7 2-49 1-5 1-42z" fill="#DDDADD"/>
<path transform="translate(451,858)" d="m0 0 5 2 51 7 4 2-2 1 42 9 28 8 24 9 19 8 27 13 9 5-4 1-23-12-24-10-26-9-23-7-29-7-19-3-21-4-24-2h-6l-4 2-1 5v10l4 7 5 6 7 3v2l5 1v2l5 1 12 7 7 4 5 2 15 9 20 7 18 8 25 9 7 3-3 1-40-13-34-13-29-14-15-9-9-7-8-8-6-12v-12z" fill="#FBA07C"/>
<path transform="translate(1370,371)" d="m0 0h2v111l-1 2h-2v4l4-1 1 5v18h-26v-3l14-14-2-2 1-12 1-101 5-5z" fill="#32344E"/>
<path transform="translate(1236,814)" d="m0 0h34l9 2 4 5 1 3v12l-3 6-4 3-16 2h-15l-9-14-7-11-4-5z" fill="#BED9F8"/>
<path transform="translate(975,997)" d="m0 0h6l-3 2h-3v2h-3l1 4 11 4 2 4 5 1 6 8 3 6 4 7v10l-6 9-1 8-1 3-12-16-12-19-7-12-2-6v-6l3-5z" fill="#DDDADD"/>
<path transform="translate(797,390)" d="m0 0 5 1 13 5 16 3v3l11 2v2l3-1 5 3h3v2l7-1h8l-2 1v2l11-3 1-2 11-2 13-7 5-2-5 5-9 5-12 6-16 5-10 2h-26l-12-1-3-1-1 9h-1v-9l-9-3-1 2v-5l-2-5 7-3-3-3-6-3-1-3-2-1h2z" fill="#508ACE"/>
<path transform="translate(950,182)" d="m0 0 15 5-1 6-7 20-4 17-2 16-3 7h-5l-2-3-2 8 3 1h-5l-1-1v-22l3-20 6-20z" fill="#BBD7F9"/>
<path transform="translate(803,414)" d="m0 0 5 1 4 2 1 9v89l-7-4-4-4-1-7 1-84z" fill="#353957"/>
<path transform="translate(552,646)" d="m0 0 15 15 13 10 10 6 17 8 13 4 14 3 23 2h9l24-3 25-6 30-10 6-1-2 4-16 8-24 8-26 5-7 1h-30l-18-3-11-3-16-6-19-10-16-13-7-7-7-10z" fill="#F29371"/>
<path transform="translate(1086,1231)" d="m0 0 3 1 7 11 4 4 1 3 4 4 8 12v2h2l3 6 3 7 3 3 3 4v2h2l11 20 4 5 2 5 4 2 4 6 6 8 7 6v2l4 1 7 8 3 2v2l4 2v2l4 2v2h2l1 4 4 2 6 5 7 4 6 3v2l6 2v2l5 2 11 9v2l4 2 7 6 7 9 5 11 1 9-3-1-5-12-8-12-12-13-8-6-18-11-16-12-10-8-16-16-9-11-8-9-11-15-13-20-10-15-17-28-11-18z" fill="#F9C5C2"/>
<path transform="translate(1143,764)" d="m0 0 14 1 14 7 13 10 18 12-3 1-5-2h-15l-21-5-4-4-4-1v6l-5-2-4-4-3-4v-2l-8-1-1 2h-2l1-6 4-5 4-2z" fill="#DDDADD"/>
<path transform="translate(1580,801)" d="m0 0h38l21 3 20 5 18 6 19 9 1 2-5-1-15-6-21-7-25-5-22-2h-16l-19 2-26 6-22 8-18 8-15 9-11 7-4-1 2-4 13-10 23-12 18-7 27-7z" fill="#F3B8B2"/>
<path transform="translate(647,1118)" d="m0 0h5l-4 4-23 7-39 9-33 6-40 5-24 2h-25l-19-4-14-5-12-6-10-9-2-5 8 6 13 8 16 6 12 3 17 1h15l21-1 34-4 35-6 31-7z" fill="#80A7E3"/>
<path transform="translate(792,163)" d="m0 0h18l5 2 4 2 4 3h10l-1 2-4 1-1 3 12 2v1h-12l-29-3h-7l-15 9-17 8-3-1-2-5-4-2 1-3 5-2 1-2h7l2-2 7-1 1-3 8-4 6-4z" fill="#4E8ACD"/>
<path transform="translate(799,768)" d="m0 0h1l1 51v364h-1l-1-10-1-153v-50z" fill="#F3B7B1"/>
<path transform="translate(536,801)" d="m0 0h32l22 3 21 5 15 5 21 9 22 13 7 6-1 3-5-1-17-11-16-8-13-6-21-7-24-5-16-2h-27l-23 3-21 5-18 6-15 7-2-1 12-7 24-9 21-5z" fill="#F3B8B2"/>
<path transform="translate(1720,997)" d="m0 0h9l10 5 6 8 1 8-7 8-2 1h-10l-8-4-6-7-2-5 1-7 4-5z" fill="#2C69AE"/>
<path transform="translate(424,997)" d="m0 0h9l5 3 3 3 1 8-4 8-7 6-6 2h-7l-6-3-4-5v-7l4-8 9-6z" fill="#2B68AE"/>
<path transform="translate(1745,1122)" d="m0 0h2l-2 5-11 9-14 7-21 6-13 2h-30l-35-4-35-5-21-4v-5l8 1 21 4 28 4 28 3 19 1h17l16-2 16-5 16-8z" fill="#7AA3E2"/>
<path transform="translate(1343,553)" d="m0 0 2 2 1 47 13 9 24 16 9 5h14l-1 2-10 1 5 4 6 3 5-1 4-2 6 1 10 1 8-4 2-2-24-1v-2l29-1 12-8 2-2h-20l-1-3 27-1 11-6 10-7 2-48 7 1 8 6h-3l-6-4-5-1v46l-7 6-20 13-10 8-8 6-6 5-9 4-10-2h-6l-2 1h-7l-11-6-11-8-6-3-4-4-7-5-6-3-8-6-8-7-1-45-6 1 4-5z" fill="#F2DCDB"/>
<path transform="translate(1023,1105)" d="m0 0 3 3 1 9-9 1h-119l-19-1v-4h145z" fill="#DFDDDF"/>
<path transform="translate(1526,1045)" d="m0 0h23l36 3 31 5 30 7 24 7 33 12 29 13v3l-11-3v-2l-10-2-2-1v-2l-5-1-5-2-8-2v-2l-9-2-17-6-14-3v-2l-10-2-30-7-32-5-23-2h-28l-1 2-4-5z" fill="#83B9FB"/>
<path transform="translate(605,1046)" d="m0 0h31l23 2 29 5 16 4 1-4v11l-1-3-8-1-25-5-21-3-11-1h-49l-21 2-30 5-21 5h-7l4-2 26-6 16-3-6-1v-1l14-1 4-1z" fill="#6C9FE2"/>
<path transform="translate(1530,589)" d="m0 0h1v124l-3 9-5 3-6 1h-129l-14-1-1 118h-1v-119l132-1 15-1 7-3 2-5 1-31z" fill="#CAB6C8"/>
<path transform="translate(950,260)" d="m0 0h272l-8 32v15l3 7 4 11 3 5v5l-4-1-2-5-7-14-3-14 2-17 4-12 4-9 1-2h-269z" fill="#4678BD"/>
<path transform="translate(1359,212)" d="m0 0 16 4 16 8 10 8 11 11 9 14 5 12 3 13 1 7v14l-2 5-4-1-1-25-5-17-8-16-11-12-7-6-15-9-17-7z" fill="#83B1F0"/>
<path transform="translate(911,1162)" d="m0 0h70l1 5h-101l-1-4z" fill="#E2E0E2"/>
<path transform="translate(663,926)" d="m0 0 5 2 14 10 11 8 12 9 9 9v9l-3 27-3 8-5-1-15-8v-1l9 1 4 1h3v-5l1-5v-13l2-9-1-7-5-5-10-8-18-13-9-6z" fill="#FB9F79"/>
<path transform="translate(972,1136)" d="m0 0h60l2 4-2 2-4 1-71-1-3-1v-4z" fill="#E7E5E7"/>
<path transform="translate(647,1118)" d="m0 0h5l-4 4-23 7-39 9-33 6-24 3v-2l-2-2 35-5 39-8z" fill="#7BA4E4"/>
<path transform="translate(1052,1021)" d="m0 0 12 9 11-1h51l6 2-1 4-4 1h-28l-34-1-9-9-4-3z" fill="#DDDADD"/>
<path transform="translate(747,674)" d="m0 0h4l-2 4-16 8-24 8-20 4h-8l-2-1v-2l5-3 24-5 29-9z" fill="#EE8D6F"/>
<path transform="translate(791,282)" d="m0 0h102l3 2v24h-1l-1-22h-111l1-3z" fill="#A7CDFB"/>
<path transform="translate(1368,486)" d="m0 0 1 2 4-1 1 5v18h-26v-3l14-14-2-2 7-4z" fill="#DBD9DE"/>
<path transform="translate(1481 1e3)" d="m0 0h7l3 2-4 4-2 1v6l17 9 4 3v2h2v3l-5-1-13-8-17-8-14-5v-3z" fill="#5581C6"/>
<path transform="translate(1343,553)" d="m0 0 2 2 1 47 13 9 24 16 9 5h14l-1 2-10 1 5 4 6 3 5-1 4-2 6 1 13 2 2 1-6 3-10-2h-6l-2 1h-7l-11-6-11-8-6-3-4-4-7-5-6-3-8-6-8-7-1-45-6 1 4-5z" fill="#F6C8C4"/>
<path transform="translate(905,396)" d="m0 0 2 1-11 8-15 7-16 5-10 2h-26l-12-1-3-1v5h-1l-1-6-5-3 4-1h3v-1h10l4 2v2l14 1 8-2h10v-2l8-1 9-2 1-2 11-2 13-7z" fill="#6794DD"/>
<path transform="translate(1078,1047)" d="m0 0h79l7 2-2 3-5 1-74-1-1 2v-4l-4-1z" fill="#E0DDE0"/>
<path transform="translate(880,1113)" d="m0 0h66l2 3 27 1v1h-76l-19-1z" fill="#FDFDFD"/>
<path transform="translate(1363,564)" d="m0 0h113v4h-113l-1-3z" fill="#F0EFF0"/>
<path transform="translate(1369,604)" d="m0 0h107l2 2-3 2-111-1-1-2z" fill="#DEDBDE"/>
<path transform="translate(1492,375)" d="m0 0h10l9 1-1 12 2 6-5 1-8-1h-7l-1-3 2-7-2-3v-5z" fill="#F7C6C4"/>
<path transform="translate(833,512)" d="m0 0 5 1 11 7 12 11 8 9 10 16 7 17 1 9-2 1-3-3-3-11-9-19-10-14-11-11-16-12z" fill="#D97880"/>
<path transform="translate(430,896)" d="m0 0 5 5 9 12 13 13 13 8 12 6 10 4v3l-9-1-19-9-14-11-11-12-8-13z" fill="#F2BBB6"/>
<path transform="translate(1722,897)" d="m0 0 1 2-6 12-12 13-10 9-15 9-13 5h-7v-3l21-8 14-9 12-11 8-9 6-9z" fill="#F4BAB5"/>
<path transform="translate(1620,559)" d="m0 0 6 2 9 11-2 4-4 3-11 2-3-1-1-7 2-9zm2 10-3 6 4-1 1-5z" fill="#E4BABE"/>
<path transform="translate(695,1011)" d="m0 0h6l7 2v9l-3 31-2 2-8-1 4-11 1-5 1-15-2-6-2-4z" fill="#5480C5"/>
<path transform="translate(1530,589)" d="m0 0h1v124l-3 9-5 3-6 1h-37l1-2 38-2 7-3 2-5 1-31z" fill="#FAC2BF"/>
<path transform="translate(1322,723)" d="m0 0 34 1-3 10-2 2h-9l-9-2-7-8-13-1v-1z" fill="#DDDADD"/>
<path transform="translate(1701,859)" d="m0 0h2l-1 4 2 2-25 3-31 4h-9v-1h7v-2l-4-1 52-8z" fill="#F3B7B1"/>
<path transform="translate(659,385)" d="m0 0 2 1v18l-6-1-4-2-5 3-4-1 1-5 1-6-2-5 3-1 8 2z" fill="#F2BAB5"/>
<path transform="translate(1072,192)" d="m0 0 5 1 7 6 3 5-2 5-2 2-10 3-5-1-2-2v-7l4-9zm1 6-1 9 5 1 1-7-2-3z" fill="#C3C0D4"/>
<path transform="translate(533,876)" d="m0 0 9 1 23 6 16 5 20 7 21 9 27 13 9 5-4 1-23-12-24-10-26-9-3-3-29-8-16-4z" fill="#F7AE9B"/>
<path transform="translate(1381,525)" d="m0 0h25l68 1v3l-113-1v-2z" fill="#F0EFF0"/>
<path transform="translate(831,286)" d="m0 0h22v4l5 3 1 3-5 1-2-1v-2h-18l-5 1v2h-4v-2l-3-1 2-7 7 1z" fill="#4E8ACD"/>
<path transform="translate(451,858)" d="m0 0 5 2 51 7 4 2-2 1 5 1v1h-8l-11-2-18-2-2-1-13-1h-14l2-6z" fill="#F3B7B1"/>
<path transform="translate(489,535)" d="m0 0 7 3 8 8v5l-11 5h-8l-2-2 1-10 3-7zm1 7-2 4v6l5-1 4-2-2-5-2-2z" fill="#D27380"/>
<path transform="translate(950,182)" d="m0 0 15 5-1 6-7 20-3 8-1-4 2-11 2-10v-3l-3 5-1 2-4 2-1-6 1-5z" fill="#DCDADE"/>
<path transform="translate(1620,802)" d="m0 0 14 1 25 6 18 6 19 9 1 2-5-1-15-6-21-7-25-5-22-2 4-2z" fill="#F7C3C0"/>
<path transform="translate(720,764)" d="m0 0h8l6 4 2 4v6l-6 7-2 1h-8l-5-5-2-4 1-7 4-5zm2 4-5 5 1 6 4 3h6l3-4v-6l-4-4z" fill="#6B92CC"/>
<path transform="translate(503,1064)" d="m0 0 4 1-24 8-21 6-32 13-9 3v-4l27-11 16-6 10-1 25-8z" fill="#88B5EE"/>
<path transform="translate(789,275)" d="m0 0 2 1 1 1h94l5-1 1 4h-106l2-4z" fill="#9AC6FB"/>
<path transform="translate(1161,1112)" d="m0 0h38l2 2h-11v2l6 2v1h-33l-3-1z" fill="#FDFDFD"/>
<path transform="translate(407,1122)" d="m0 0 8 6 13 8 16 6 12 3 17 1v1h-12v2l2 1-10-1-17-5-11-5-10-6-7-7z" fill="#A3C2EB"/>
<path transform="translate(1429,772)" d="m0 0 8 2 4 6v8l-7 6-6 1-6-3-3-6 1-8 5-5zm-1 4-5 5v6l3 4h7l4-4v-6l-4-5z" fill="#678DC3"/>
<path transform="translate(936,260)" d="m0 0h9v1h-7l5 21 6 16 3 7v21l-1 8h-2v-22l-3-12-5-11-5-19z" fill="#2564AA"/>
<path transform="translate(880,1137)" d="m0 0h47l-1 5h-16l-30-1-1-3z" fill="#F9F9F9"/>
<path transform="translate(1384,578)" d="m0 0h50v4l-22 1-30-1z" fill="#FEFEFE"/>
<path transform="translate(809,556)" d="m0 0 5 1 3 5v13l-3 7-2 2-4-1v-26z" fill="#EF8B6F"/>
<path transform="translate(1148,1136)" d="m0 0h37l3 3-1 2-6 1h-26l-2-4-5-1z" fill="#E2DFE2"/>
<path transform="translate(1225,982)" d="m0 0h2l3 12 1 6v47l1 20-2 12-3 3 1-13v-60l-3-23z" fill="#F9C4C2"/>
<path transform="translate(1421,261)" d="m0 0h2l5 15 2 13v14l-2 5-4-1-1-28h2l-1-9-3-7z" fill="#BBD8F8"/>
<path transform="translate(1211,932)" d="m0 0h2v2l2 1 1 4 4 4 1 7 2 3 1 8 2 7 1 13-3 1-6-26-7-22z" fill="#F9C5C2"/>
<path transform="translate(1472,591)" d="m0 0h2l-1 5h-51l-2-1v-3h50l1 1z" fill="#FEFEFE"/>
<path transform="translate(609,965)" d="m0 0h8l11 5 10 3 18 6h3l2 2 5 2v2l6 1 12 6 4 6-5-2-15-8-17-7-21-8-21-7z" fill="#FAA17E"/>
<path transform="translate(784,169)" d="m0 0 4 2 2-1v2l6 2v1l-6 2-14 8-17 8-1-4 5-4 7-1 2-2 2-1 3-6h3 3z" fill="#6997DF"/>
<path transform="translate(1048,579)" d="m0 0 8 6 9 6 12 4 18 1-2 2-17 1-8-3-6-1-1 2h2v2l3 1-2 1-11-6 2-4-2-7-4-2z" fill="#BCD9F9"/>
<path transform="translate(1207,342)" d="m0 0 4 2 10 13 11 9 13 7v3l-6-1-12-7-12-11-6-10z" fill="#B8D5F6"/>
<path transform="translate(1052,1021)" d="m0 0 12 9 11-1h51l-4 2-52 1 2 1 20 1v1h-27l-9-9-4-3z" fill="#FEFEFE"/>
<path transform="translate(1565,1133)" d="m0 0 8 1 21 4 10 2-2 1v2l3 1-12-1-28-5z" fill="#7AA3E2"/>
<path transform="translate(1475,564)" d="m0 0 1 4h-35l-31-1v-2z" fill="#FEFEFE"/>
<path transform="translate(1384,500)" d="m0 0h50v3l-21 1h-14l-16-1z" fill="#FEFEFE"/>
<path transform="translate(1419,553)" d="m0 0h55v3h-55z" fill="#F5F4F5"/>
<path transform="translate(519,803)" d="m0 0h3v2h-3v2l-27 6-18 6-15 7-2-1 12-7 24-9 21-5z" fill="#F8C2BF"/>
<path transform="translate(1383,618)" d="m0 0h51l-1 3h-54l-1-2z" fill="#FDFDFD"/>
<path transform="translate(1745,1122)" d="m0 0h2l-2 5-11 9-14 7-13 4h-2v-2l-3-1 16-5 16-8z" fill="#86ABDF"/>
<path transform="translate(605,1046)" d="m0 0h31v3h-43l-27 3-15-1v-1l14-1 4-1z" fill="#83BAFD"/>
<path transform="translate(1343,553)" d="m0 0 2 2 1 47 13 9 15 10 1 2-5-1-7-4-10-7-9-8-1-45-6 1 4-5z" fill="#F4BDB8"/>
<path transform="translate(1372,367)" d="m0 0h1v117l-4 2v-2h2l1-113-7 5h-2l-1 2v-3l8-7z" fill="#5381C5"/>
<path transform="translate(725,553)" d="m0 0h1v19l-1 41-3-1-7-23-1-4 3 3 3 10 2-2 1-4 1-29z" fill="#F29A7D"/>
<path transform="translate(1419,514)" d="m0 0h56v3h-56z" fill="#FEFEFE"/>
<path transform="translate(1362,551)" d="m0 0 11 1 34 1v3h-44z" fill="#DDDADD"/>
<path transform="translate(1381,539)" d="m0 0h53v3h-54z" fill="#E8E6E8"/>
<path transform="translate(1143,764)" d="m0 0 14 1 14 7 13 10 7 5-2 1-5-2v-2l-4-2-9-7-10-5-13-2h-13l-4 1 3-3z" fill="#FEFEFE"/>
<path transform="translate(1489,556)" d="m0 0 7 1 8 6h-3l-6-4-5-1v46l-7 6-19 12v-3h2v-2l11-6 10-7z" fill="#F3C4C0"/>
<path transform="translate(1322,723)" d="m0 0 34 1-1 2h-2v2l-6 2-13-1-8-3-13-1v-1z" fill="#F8C2BE"/>
<path transform="translate(562,1138)" d="m0 0h8v3l-31 5-10 1v-2l-2-2z" fill="#7BA4E2"/>
<path transform="translate(700,561)" d="m0 0 2 1 8 22 11 34-1 3-2-3-6-21-7-20-1-2-2 2-1 10h-1z" fill="#F29F86"/>
<path transform="translate(1359,212)" d="m0 0 16 4 16 8 3 3-2 3-5-2-10-6-17-7z" fill="#CDDEF3"/>
<path transform="translate(1369,604)" d="m0 0h107v1l-103 1v1h-9l-1-2z" fill="#FEFEFE"/>
<path transform="translate(927,1113)" d="m0 0h19l2 3 27 1v1h-65v-1l6-1h12l1-1z" fill="#FEFEFE"/>
<path transform="translate(946,340)" d="m0 0 1 2-7 16-8 14-12 14-3 3-2-1 7-7 10-14 2-6 1-5h2l2-8 4-2z" fill="#6592DC"/>
<path transform="translate(1364,514)" d="m0 0h42l1 3h-43z" fill="#FEFEFE"/>
<path transform="translate(1722,897)" d="m0 0 1 2-6 12-12 13-5 5-4-2 16-16 9-13z" fill="#F2C8C6"/>
<path transform="translate(1441,500)" d="m0 0h34v4h-21l-13-1z" fill="#FEFEFE"/>
<path transform="translate(1692,1077)" d="m0 0 13 3 27 12v3l-11-3v-2l-10-2-2-1v-2l-5-1-12-5z" fill="#9DC5F7"/>
<path transform="translate(1201,1113)" d="m0 0h17l-2 5h-26v-4z" fill="#E0DDE0"/>
<path transform="translate(1620,559)" d="m0 0 6 2 6 7v2l-4-1v-2l-4-1v-2l-5 3-2 9h9l-3 3h-6l-2-4v-8l3-6z" fill="#DF8F8D"/>
<path transform="translate(1417,526)" d="m0 0h57v3l-57-1z" fill="#FEFEFE"/>
<path transform="translate(833,512)" d="m0 0 5 1 11 7 12 11 3 3-1 3-8-6-11-10-11-8z" fill="#D4838F"/>
<path transform="translate(474,982)" d="m0 0h8l3 4-2 5-3 2-5-1-4-4 1-4z" fill="#3465A3"/>
<path transform="translate(1672,982)" d="m0 0h7l3 2-1 6-4 3-6-2-3-3 1-4z" fill="#3A6FB0"/>
<path transform="translate(1655,808)" d="m0 0 16 5 15 6 11 6-3 1-17-7-21-7-4-2z" fill="#EFCDCC"/>
<path transform="translate(1368,592)" d="m0 0h38v3h-37z" fill="#FEFEFE"/>
<path transform="translate(552,646)" d="m0 0 15 15 13 10 1 4-4-1-11-9-7-7-7-10z" fill="#BC7C96"/>
<path transform="translate(1440,579)" d="m0 0h36v3h-35l-2-2z" fill="#FEFEFE"/>
<path transform="translate(1311,580)" d="m0 0 2 1-6 7-1 19-1 43h-1v-65z" fill="#F6BCB8"/>
<path transform="translate(836,305)" d="m0 0h5l1 1-1 16-1 2h-3l-3-15z" fill="#7AA0DC"/>
<path transform="translate(1017,1163)" d="m0 0h28l1 4h-15l-12-1-3-2z" fill="#E0DDE0"/>
<path transform="translate(880,1163)" d="m0 0h26l-1 4h-24z" fill="#FEFEFE"/>
<path transform="translate(490,539)" d="m0 0 5 1 2 5 4 2-1 2-5 3-4-1 6-2-4-6-3-1-2 10-3-1 2 3 6 1v1h-8l-2-2 1-10 1 4h2l1-7z" fill="#DED8E1"/>
<path transform="translate(1148,1136)" d="m0 0h37l-1 2h-24l-2 1 7 1h16v2h-26l-2-4-5-1z" fill="#FEFEFE"/>
<path transform="translate(1441,539)" d="m0 0h33v3h-34z" fill="#FEFEFE"/>
<path transform="translate(789,275)" d="m0 0 2 1 1 1 35 1v2h-41l2-4z" fill="#94C3FC"/>
<path transform="translate(1219,264)" d="m0 0h1l-1 7-5 21v3l-2 1-1 9h-1v-10l3-16 5-14z" fill="#4F84C8"/>
<path transform="translate(1229,1025)" d="m0 0h1l2 42-2 12-3 3 1-13z" fill="#F1CAC9"/>
<path transform="translate(663,926)" d="m0 0 5 2 14 10 11 8 7 5-1 2-4-2-19-14-12-8z" fill="#F9A88D"/>
<path transform="translate(529,876)" d="m0 0 6 1 26 6 17 5 1 2-7-1-22-6-21-5z" fill="#FC9E77"/>
<path transform="translate(518,1144)" d="m0 0h12l-1 3-16 2h-10l-1-3z" fill="#709ADA"/>
<path transform="translate(1621,564)" d="m0 0h3l1 2 3 1v4h-2v2l2 1-4 3-7-1 1-9zm1 5-3 6 4-1 1-5z" fill="#FBF5F4"/>
<path transform="translate(1565,1133)" d="m0 0 8 1 9 2 1 5-14-2-4-1z" fill="#628CCC"/>
<path transform="translate(720,764)" d="m0 0h8l6 4 2 4v6l-2 2-1-2-2 1-2-9-6-2 3-1v-2h-6z" fill="#94B1DD"/>
<path transform="translate(1393,227)" d="m0 0 5 2 14 14h-3l-5-4-1 2-12-12z" fill="#8CB7F1"/>
<path transform="translate(913,1137)" d="m0 0h14l-1 5h-16l-4-2 6-1z" fill="#FEFEFE"/>
<path transform="translate(1274,892)" d="m0 0 6 4 3 5 3 16-2-1-7-14z" fill="#DDDADD"/>
<path transform="translate(779,664)" d="m0 0h5v3l-16 5h-4l1-4 8-3z" fill="#A48BAE"/>
<path transform="translate(966 1e3)" d="m0 0 1 2-1 6 2 5 2 8h2l2 7 1 4-3-3-7-12-2-6v-6z" fill="#FEFEFE"/>
<path transform="translate(536,801)" d="m0 0h6v1l16 1v1l-22 1-17 1 3-1v-2z" fill="#F6BEBA"/>
<path transform="translate(1415,639)" d="m0 0 6 1 13 2 2 1-6 3-10-2v-2l-9 2h-5l3-2z" fill="#F2D3D3"/>
<path transform="translate(1425,320)" d="m0 0 2 1-1 8-3 6-2 2h-3l1-6 5-10z" fill="#B4D1F4"/>
<path transform="translate(1529,683)" d="m0 0h1l1 30-3 9-5 3-4-1v-2l7-3 2-5z" fill="#F6BDB8"/>
<path transform="translate(670,591)" d="m0 0 1 2 7 1 1 1v16l-2 7-4 3-5-2-3-4 1-2 5 5 4-2 2-6v-11l-1-2-6-2z" fill="#F3A38D"/>
<path transform="translate(1424,287)" d="m0 0 2 2v15l1 1v-17l2-1 1 2v14l-2 5-4-1z" fill="#BCD9FA"/>
<path transform="translate(1052,1021)" d="m0 0 12 9h8l-2 2 2 1 20 1v1h-27l-9-9-4-3z" fill="#FEFEFE"/>
<path transform="translate(714,585)" d="m0 0 3 3 3 10 2-2 2-4v16h-3l-7-21z" fill="#F2926F"/>
<path transform="translate(859,534)" d="m0 0 4 2h3l7 10 3 5-1 2-1-3-5-1-6-9z" fill="#EA8A7C"/>
<path transform="translate(582,1134)" d="m0 0h6l2 1v2l-15 3h-6l-2-3z" fill="#749EDF"/>
<path transform="translate(507,872)" d="m0 0h12l14 3-4 2-11-1-11-2z" fill="#F9A688"/>
<path transform="translate(487,811)" d="m0 0h2v3l-17 6-13 6-2-1 12-7z" fill="#F0C9C8"/>
<path transform="translate(580,672)" d="m0 0 16 8 1 3-4 1-12-7z" fill="#F1AA98"/>
<path transform="translate(810,557)" d="m0 0h4l1 4v11l-2 4-2-3z" fill="#D74D61"/>
<path transform="translate(629,554)" d="m0 0 7 1v54h-1l-1-51-5-2z" fill="#F3B2A8"/>
<path transform="translate(1362,551)" d="m0 0 11 1 34 1v1l-44 1z" fill="#FEFEFE"/>
<path transform="translate(1244,400)" d="m0 0 4 1-2 1h-6l1 3 8 2v1h-7l-12-4-3-3z" fill="#8EC0FC"/>
<path transform="translate(461,1147)" d="m0 0h26v1l-5 1v1h-19l-2-1z" fill="#527EC3"/>
<path transform="translate(626,907)" d="m0 0 5 1 21 11 6 3-4 1-23-12-5-2z" fill="#F9AB93"/>
<path transform="translate(1343,553)" d="m0 0 2 2v41h-1l-1-38-6 1 4-5z" fill="#F6C9C7"/>
<path transform="translate(1604,1140)" d="m0 0 18 2-4 3-4 1-9-1v-2h-3v-2z" fill="#84ABE7"/>
<path transform="translate(584,1047)" d="m0 0m-15 1h15v2l-22 2-11-1v-1l14-1z" fill="#8EC0FC"/>
<path transform="translate(1476 1e3)" d="m0 0 3 1-7 3-5 3 1 2-9-2v-3z" fill="#709BDD"/>
<path transform="translate(870,548)" d="m0 0 4 2 5 6 1 10h-2l-8-16z" fill="#E37171"/>
<path transform="translate(499,548)" d="m0 0 5 1-1 3-7 3h-9l-2-4h10z" fill="#C7A2B2"/>
<path transform="translate(1725,1068)" d="m0 0 3 3 5 13v7l-3 1-5-2 4-2v-9l-4-9z" fill="#6F9BE1"/>
<path transform="translate(1463,849)" d="m0 0 3 1-5 5-7 6-4 1 1-4 8-6z" fill="#F1BFBC"/>
<path transform="translate(926,1113)" d="m0 0 7 1-4 1-1 2h-17v-3z" fill="#DDDADD"/>
<path transform="translate(687,850)" d="m0 0 5 1 8 5 3 3v3l-5-2-10-8z" fill="#F2BFBC"/>
<path transform="translate(1422,786)" d="m0 0 4 4h9l2 2-6 3-6-1-5-5 1-2z" fill="#8AABDA"/>
<path transform="translate(1692,1077)" d="m0 0 13 3 9 4-1 2-7-1-14-6z" fill="#ABD0FA"/>
<path transform="translate(1127,1030)" d="m0 0 5 1-1 4-4 1h-28v-1l29-2 1-1z" fill="#FEFEFE"/>
<path transform="translate(1404,580)" d="m0 0h27l2 2-21 1-8-2z" fill="#E1DEE1"/>
<path transform="translate(1674,815)" d="m0 0 5 1 17 8 1 2-5-1-15-6-3-1z" fill="#F0EBEC"/>
<path transform="translate(444,1143)" d="m0 0 8 1 4 1 17 1v1h-12v2l2 1-10-1 1-2-10-3z" fill="#BCD9FA"/>
<path transform="translate(1425,773)" d="m0 0 5 1-3 2h-3l-1 10-2 2-2-2 1-8z" fill="#577BB1"/>
<path transform="translate(718,765)" d="m0 0h8v2l-7 4-3 8h-1v-11z" fill="#648DCD"/>
<path transform="translate(1138,1047)" d="m0 0h19l7 2-2 3-6-2-18-1z" fill="#FEFEFE"/>
<path transform="translate(1510,1035)" d="m0 0h5l8 5 1 5-5-2-9-6z" fill="#5581C7"/>
<path transform="translate(464,1074)" d="m0 0h10l-3 2-11 3-9 2-5 1 4-3z" fill="#91C1FC"/>
<path transform="translate(596,681)" d="m0 0 9 3 2 1v5l-10-4-3-3z" fill="#F29778"/>
<path transform="translate(1419,539)" d="m0 0h15v3h-21l2-2z" fill="#FEFEFE"/>
<path transform="translate(1071,193)" d="m0 0 4 1v2h-2l-2 6-1 5 1 4-4-1 1-11z" fill="#5F85C5"/>
<path transform="translate(811,175)" d="m0 0h9l19 3v1h-12l-19-2z" fill="#719EE3"/>
<path transform="translate(835,310)" d="m0 0 3 4v2h2l1-5 1 2-1 9-1 2h-3l-2-10z" fill="#A1BFE9"/>
<path transform="translate(659,385)" d="m0 0 2 1v18l-6-1 3-2v-8l-3-6z" fill="#F3CECD"/>
<path transform="translate(1072,192)" d="m0 0 5 1 6 6 1 5h-2l-4-4-5-2 1-4z" fill="#D399A2"/>
<path transform="translate(1716,1140)" d="m0 0 1 2 3 1-13 4h-2v-2l-3-1z" fill="#96B9EC"/>
<path transform="translate(1604,942)" d="m0 0m-1 1m-1 1m-4 1h4v2l-18 6-3-1 7-4z" fill="#FAA282"/>
<path transform="translate(1426,284)" d="m0 0 2 3v18l-2 1-1-4v-15z" fill="#6693DD"/>
<path transform="translate(1349,225)" d="m0 0 5 1 16 8 6 4-2 1-10-5v-2l-9-3-6-3z" fill="#92C2FC"/>
<path transform="translate(936,227)" d="m0 0h1l-1 31h-1l-1-26z" fill="#6693DD"/>
<path transform="translate(1383,221)" d="m0 0 5 1 6 4-2 4-5-2-4-3z" fill="#ACD0FA"/>
<path transform="translate(407,1122)" d="m0 0 8 6 6 4v2h-5l-8-8z" fill="#8BAFE3"/>
<path transform="translate(1439,618)" d="m0 0h16v3h-15z" fill="#FEFEFE"/>
<path transform="translate(814,558)" d="m0 0 2 1 1 3v13l-2 6-2-3 1-6z" fill="#F29676"/>
<path transform="translate(1067,201)" d="m0 0 1 4v5h2v-2l9 3-2 2-8 1-3-3v-7z" fill="#D2D8EA"/>
<path transform="translate(933,367)" d="m0 0v3l-11 14-5 5-2-1 7-7 8-11z" fill="#6693DD"/>
<path transform="translate(913,365)" d="m0 0h1v6l-5 5-8 6v-3l8-8h2z" fill="#2564AA"/>
<path transform="translate(562,1138)" d="m0 0h8v3l-13 2-1-4z" fill="#84ABE7"/>
<path transform="translate(1446,631)" d="m0 0h5l-5 5-7 6-3-1h2l2-4 3-1v-4z" fill="#F5BBB6"/>
<path transform="translate(1217,321)" d="m0 0h2l5 9v5l-4-1-2-8z" fill="#4981C5"/>
<path transform="translate(485,869)" d="m0 0h10l11 2 1 2-14-1-8-2z" fill="#FC9E77"/>
<path transform="translate(552,646)" d="m0 0 14 14-3 2-7-8-4-6z" fill="#B29FBD"/>
<path transform="translate(704,1053)" d="m0 0h1v11l-1-3-8-1 1-4 7 1z" fill="#94BEF3"/>
<path transform="translate(492,539)" d="m0 0 3 1 2 5 4 2-1 2-5 3-4-1 6-2-5-7z" fill="#F7CECA"/>
<path transform="translate(1594,1139)" d="m0 0 10 1-2 1v2l3 1-12-1z" fill="#6C94D0"/>
<path transform="translate(714,770)" d="m0 0 3 6 5 6h-4l-1 2-4-7z" fill="#BCD9FA"/>
<path transform="translate(789,275)" d="m0 0 2 1 1 1 11 2v1h-17l2-4z" fill="#8EBFFA"/>
<path transform="translate(609,899)" d="m0 0 9 3 8 4v2l-7-2-9-4z" fill="#FAA88C"/>
<path transform="translate(720,764)" d="m0 0h8l5 3-2 5-4-3-4-2h3v-2h-6z" fill="#89AFE7"/>
<path transform="translate(833,512)" d="m0 0 5 1 10 6-2 2-7-3-6-5z" fill="#98A5CE"/>
<path transform="translate(787,384)" d="m0 0 4 1 3 2-1 3h-7l-1-4z" fill="#558ED0"/>
<path transform="translate(1423,642)" d="m0 0h13l-3 3-6 1-7-2z" fill="#F4BDB9"/>
<path transform="translate(1623,561)" d="m0 0 4 1 5 6v2l-4-1v-2l-4-1v-2l-2-1z" fill="#D57A85"/>
<path transform="translate(1364,539)" d="m0 0h10v3h-14v-2z" fill="#EBEAEB"/>
<path transform="translate(788,325)" d="m0 0 4 2 1 5 3 1 7 8h-3l-9-9-3-5z" fill="#6EACFA"/>
<path transform="translate(1239,240)" d="m0 0 2 1-15 15v-3l8-9z" fill="#81B7FB"/>
<path transform="translate(1565,1133)" d="m0 0 8 1v3l-1 2-7-1z" fill="#7CA5E4"/>
<path transform="translate(457,1078)" d="m0 0h3v2l-13 5-4-1 8-4z" fill="#ACD0FA"/>
<path transform="translate(879,558)" d="m0 0 2 2 4 10v2l-5-1-1-5z" fill="#D38E92"/>
<path transform="translate(1422,267)" d="m0 0 3 3v9l-3-1-2-9h2z" fill="#8EBDF7"/>
<path transform="translate(609,965)" d="m0 0h8l11 5 3 1-1 2-21-7z" fill="#F9A485"/>
<path transform="translate(1312,301)" d="m0 0 2 1-6 9-4-2-3-4 6 1z" fill="#8EC0FC"/>
<path transform="translate(826,285)" d="m0 0h26v1h-21v2h-6z" fill="#6693DD"/>
<path transform="translate(870,674)" d="m0 0h3l-1 9-4-3-1-5z" fill="#F29C80"/>
<path transform="translate(1212,310)" d="m0 0 4 2 2 9-2 1-4-9z" fill="#4F85C9"/>
<path transform="translate(755,201)" d="m0 0 3 1 1 10-5-5v-5z" fill="#5790D3"/>
<path transform="translate(1398,234)" d="m0 0h2v2h4l7 6 1 2-4-2-4-3-1 2-5-5z" fill="#9FC9FB"/>
<path transform="translate(497,808)" d="m0 0h4l-1 3-11 2 1-3z" fill="#F3C1BD"/>
<path transform="translate(1429,772)" d="m0 0 8 2-3 4-1-1-7 1-2 1v-3l5-2z" fill="#87AEE2"/>
<path transform="translate(1023,1105)" d="m0 0 3 3 1 9h-4l-2-4h4z" fill="#EAE8EA"/>
<path transform="translate(1680,1073)" d="m0 0 4 1 8 3v2l4 1-3 1-2-1v-2l-9-2-2-1z" fill="#97C0F4"/>
<path transform="translate(1620,565)" d="m0 0 2 2-1 5-2 4h-2l1-9z" fill="#F1E0E1"/>
<path transform="translate(497,540)" d="m0 0 7 6v3h-3l-5-6z" fill="#E37F7C"/>
<path transform="translate(441,1143)" d="m0 0 14 3-1 2-9-1-5-2z" fill="#6790CE"/>
<path transform="translate(1052,1021)" d="m0 0 8 6 5 4 1 4-14-12z" fill="#E3E1E3"/>
<path transform="translate(724,592)" d="m0 0h1v21l-3-1 1-4z" fill="#F3B7B1"/>
<path transform="translate(1311,580)" d="m0 0 2 1-8 9h-1v-5z" fill="#F0C5C3"/>
<path transform="translate(869,542)" d="m0 0 4 4 3 5-1 2-1-3-5-1-1-4z" fill="#F29F89"/>
<path transform="translate(488,1146)" d="m0 0h14l3 2-1 2h-5v-2l-11-1z" fill="#A0C2F0"/>
<path transform="translate(426,1089)" d="m0 0 4 1-3 3-6 2v-4z" fill="#A7CDFB"/>
<path transform="translate(1616,571)" d="m0 0h1v5h9l-3 3h-6l-2-4z" fill="#DA5561"/>
<path transform="translate(1505,501)" d="m0 0 4 1v12h-2l-1-11z" fill="#FEFEFE"/>
<path transform="translate(644,396)" d="m0 0 5 5-3 3-4-1 1-5z" fill="#F3CBCA"/>
<path transform="translate(1378,218)" d="m0 0 6 2-1 5-6-3z" fill="#BFD9F6"/>
<path transform="translate(430,896)" d="m0 0 5 5 2 4-2 3-5-9z" fill="#F3CECC"/>
<path transform="translate(1455,618)" d="m0 0h11l-4 3h-7z" fill="#DEDBDE"/>
<path transform="translate(485,551)" d="m0 0 10 1v2l-2 1h-6z" fill="#C85668"/>
<path transform="translate(1083,199)" d="m0 0 4 5-2 5-2 2-4-1h2l1-3h3l-2-5z" fill="#EBD1D3"/>
<path transform="translate(488,1019)" d="m0 0 2 1-2 2-6 3h-5l4-3z" fill="#7DA9E9"/>
<path transform="translate(1463,849)" d="m0 0 3 1-5 5-3 1-1-3z" fill="#EFCCCB"/>
<path transform="translate(733,777)" d="m0 0 1 4-5 4v-2l-2-1 4-4z" fill="#6F96D0"/>
<path transform="translate(670,591)" d="m0 0 1 2 7 1 1 4-2 1-1-2-6-2z" fill="#F29472"/>
<path transform="translate(1372,578)" d="m0 0h2v3l-7 1v-3z" fill="#FEFEFE"/>
<path transform="translate(493,547)" d="m0 0h2v2h-2z" fill="#FEFEFE"/>
<path transform="translate(918,830)" d="m0 0 2 1-2 1z" fill="#FEFEFE"/>
<path transform="translate(455,826)" d="m0 0 2 1z" fill="#FEFEFE"/>
<path transform="translate(1697,826)" d="m0 0" fill="#FEFEFE"/>
<path transform="translate(1374,619)" d="m0 0" fill="#FEFEFE"/>
<path transform="translate(1365,578)" d="m0 0" fill="#FEFEFE"/>
</svg>
